<?xml version="1.0" standalone="no"?>
<!DOCTYPE svg PUBLIC "-//W3C//DTD SVG 20010904//EN"
 "http://www.w3.org/TR/2001/REC-SVG-20010904/DTD/svg10.dtd">
<svg version="1.0" xmlns="http://www.w3.org/2000/svg"
 width="1280.000000pt" height="1137.000000pt" viewBox="0 0 1280.000000 1137.000000"
 preserveAspectRatio="xMidYMid meet">
<metadata>
Created by potrace 1.15, written by Peter Selinger 2001-2017
</metadata>
<g transform="translate(0.000000,1137.000000) scale(0.100000,-0.100000)"
fill="#000000" stroke="none">
<path d="M3193 11222 l-253 -147 -2 -285 -3 -284 -240 -138 -240 -138 -5 -286
-5 -286 -242 -140 -243 -140 0 -283 0 -282 -242 -140 -243 -140 -3 -285 -2
-284 -243 -140 -242 -140 -3 -284 -3 -285 -244 -140 -244 -140 -3 -285 -3
-285 -243 -140 -242 -140 0 -300 0 -300 243 -140 242 -140 3 -285 3 -285 244
-140 244 -140 3 -285 3 -284 242 -140 243 -140 2 -284 3 -285 242 -140 243
-140 0 -282 0 -283 243 -140 242 -140 5 -286 5 -286 240 -138 240 -138 3 -284
2 -285 252 -145 c138 -80 256 -146 263 -148 6 -2 121 60 253 137 l242 139 241
-139 c132 -76 244 -139 249 -139 5 0 117 63 249 139 l241 139 241 -139 c132
-76 244 -139 249 -139 5 0 117 63 249 139 l241 139 241 -139 c132 -76 244
-139 249 -139 5 0 117 63 249 139 l241 139 241 -139 c132 -76 244 -139 249
-139 5 0 117 63 249 139 l241 139 241 -139 c132 -76 244 -139 249 -139 5 0
117 63 249 139 l241 139 242 -139 c132 -77 247 -139 253 -137 7 2 125 68 263
148 l252 145 2 285 3 284 240 138 240 138 5 286 5 286 243 140 242 140 0 283
0 282 242 140 243 140 3 285 2 284 243 140 242 140 3 284 3 285 244 140 244
140 3 285 3 285 243 140 242 140 0 300 0 300 -242 140 -243 140 -3 285 -3 285
-244 140 -244 140 -3 285 -3 284 -242 140 -243 140 -2 284 -3 285 -242 140
-243 140 0 282 0 283 -242 140 -243 140 -5 286 -5 286 -240 138 -240 138 -3
284 -2 285 -252 145 c-138 80 -256 146 -263 148 -6 2 -121 -60 -253 -137
l-242 -139 -241 139 c-132 76 -244 139 -249 139 -5 0 -117 -63 -249 -139
l-241 -139 -241 139 c-132 76 -244 139 -249 139 -5 0 -117 -63 -249 -139
l-241 -139 -241 139 c-132 76 -244 139 -249 139 -5 0 -117 -63 -249 -139
l-241 -139 -241 139 c-132 76 -244 139 -249 139 -5 0 -117 -63 -249 -139
l-241 -139 -241 139 c-132 76 -244 139 -249 139 -5 0 -117 -63 -249 -139
l-241 -139 -241 139 c-132 76 -246 139 -252 138 -7 0 -126 -67 -264 -147z
m499 -51 l223 -129 0 -267 0 -267 -223 -129 c-123 -71 -227 -129 -232 -129 -4
0 -109 58 -232 129 l-223 129 0 267 0 266 220 129 c121 71 225 129 232 129 6
1 112 -57 235 -128z m980 0 l223 -129 0 -267 0 -267 -223 -129 c-123 -71 -227
-129 -232 -129 -4 0 -109 58 -232 129 l-223 129 0 267 0 266 220 129 c121 71
225 129 232 129 6 1 112 -57 235 -128z m980 0 l223 -130 0 -266 0 -267 -223
-129 c-123 -71 -227 -129 -232 -129 -5 0 -109 58 -232 129 l-223 129 0 267 0
266 220 129 c121 71 225 129 232 129 6 1 112 -57 235 -128z m980 0 l223 -130
0 -266 0 -267 -223 -129 c-123 -71 -227 -129 -232 -129 -5 0 -109 58 -232 129
l-223 129 0 267 0 266 220 129 c121 71 225 129 232 129 6 1 112 -57 235 -128z
m980 0 l223 -130 0 -266 0 -267 -223 -129 c-123 -71 -227 -129 -232 -129 -5 0
-109 58 -232 129 l-223 129 0 267 0 266 220 129 c121 71 225 129 232 129 6 1
112 -57 235 -128z m980 0 l223 -130 0 -266 0 -267 -223 -129 c-123 -71 -228
-129 -232 -129 -5 0 -109 58 -232 129 l-223 129 0 267 0 267 220 128 c121 71
225 129 232 129 6 1 112 -57 235 -128z m980 0 l223 -130 0 -266 0 -267 -223
-129 c-123 -71 -228 -129 -232 -129 -5 0 -109 58 -232 129 l-223 129 0 267 0
267 220 128 c121 71 225 129 232 129 6 1 112 -57 235 -128z m-6369 -850 l222
-129 0 -267 0 -266 -227 -131 -228 -131 -227 131 -228 131 0 267 0 268 220
127 c121 71 226 128 233 128 6 1 112 -57 235 -128z m980 0 l222 -129 0 -267 0
-266 -227 -131 -228 -131 -227 131 -228 131 0 267 0 266 220 128 c121 71 226
129 233 129 6 1 112 -57 235 -128z m979 0 l223 -129 0 -266 0 -267 -227 -131
-228 -131 -227 131 -228 131 0 267 0 266 220 128 c121 71 225 129 232 129 6 1
112 -57 235 -128z m980 0 l223 -129 0 -266 0 -267 -227 -131 -228 -131 -227
131 -228 131 0 267 0 266 220 128 c121 71 225 129 232 129 6 1 112 -57 235
-128z m981 0 l222 -129 0 -267 0 -266 -227 -131 -228 -131 -227 131 -228 131
0 267 0 266 220 128 c121 71 226 129 233 129 6 1 112 -57 235 -128z m979 0
l223 -129 0 -266 0 -267 -227 -131 -228 -131 -227 131 -228 131 0 267 0 266
220 128 c121 71 225 129 232 129 6 1 112 -57 235 -128z m980 0 l223 -129 0
-266 0 -267 -227 -131 -228 -131 -227 131 -228 131 0 266 0 267 220 128 c121
71 225 129 232 129 6 1 112 -57 235 -128z m983 0 l220 -127 0 -268 0 -267
-227 -131 -228 -131 -227 131 -228 131 0 266 0 267 220 128 c121 71 227 129
235 129 8 0 114 -57 235 -128z m-7300 -878 l170 -99 3 -265 2 -265 -230 -133
-230 -132 -230 132 -230 133 0 266 1 265 227 131 227 131 60 -33 c33 -18 137
-77 230 -131z m8015 -363 l0 -266 -230 -133 -230 -132 -230 132 -230 133 2
265 3 265 228 132 228 132 229 -132 229 -131 1 -265z m-7085 392 l220 -128 3
-265 2 -265 -230 -133 -230 -132 -230 133 -230 133 2 264 3 265 220 128 c121
70 227 127 235 128 8 0 114 -58 235 -128z m980 0 l220 -128 3 -265 2 -265
-230 -133 -230 -132 -230 133 -230 133 2 264 3 265 220 128 c121 70 227 127
235 127 8 0 114 -57 235 -127z m980 0 l220 -128 3 -265 2 -265 -230 -133 -230
-132 -230 132 -230 133 2 265 3 265 220 128 c121 70 227 127 235 127 8 0 114
-57 235 -127z m980 0 l220 -128 3 -265 2 -265 -230 -133 -230 -132 -230 132
-230 133 2 265 3 265 220 128 c121 70 227 127 235 127 8 0 114 -57 235 -127z
m980 0 l220 -128 3 -265 2 -265 -230 -133 -230 -132 -230 132 -230 133 2 265
3 265 220 128 c121 70 227 127 235 127 8 0 114 -57 235 -127z m980 0 l220
-128 3 -265 2 -264 -230 -133 -230 -133 -230 132 -230 133 2 265 3 265 220
128 c121 70 227 128 235 128 8 -1 114 -58 235 -128z m980 0 l220 -128 3 -265
2 -264 -230 -133 -230 -133 -230 132 -230 133 2 265 3 265 220 128 c121 70
227 128 235 128 8 -1 114 -58 235 -128z m-7352 -847 l227 -130 0 -265 0 -265
-230 -132 -229 -132 -231 132 -230 132 0 265 0 265 228 132 c125 72 230 131
233 130 3 -1 108 -60 232 -132z m980 0 l227 -130 0 -265 0 -265 -230 -132
-229 -132 -231 132 -230 132 0 265 1 265 227 132 c125 72 230 130 233 130 3
-1 108 -60 232 -132z m980 0 l227 -130 0 -265 0 -265 -230 -132 -229 -132
-231 132 -230 132 0 265 1 265 227 132 c125 72 230 130 233 130 3 -1 108 -60
232 -132z m980 0 l227 -130 0 -265 0 -265 -230 -132 -230 -133 -230 133 -230
132 0 265 1 265 227 132 c125 72 230 130 233 130 3 -1 107 -60 232 -132z m980
0 l227 -130 0 -265 0 -265 -230 -132 -230 -133 -230 133 -230 132 0 265 0 265
228 131 c125 73 230 131 233 130 3 0 107 -59 232 -131z m980 0 l227 -130 0
-265 0 -265 -230 -132 -230 -133 -230 133 -230 132 0 265 0 265 228 131 c125
73 230 131 233 130 3 0 107 -59 232 -131z m980 0 l226 -130 1 -265 0 -265
-230 -132 -230 -133 -230 133 -230 132 0 265 0 265 228 131 c125 73 230 131
233 130 3 0 108 -59 232 -131z m980 0 l226 -130 1 -265 0 -265 -230 -132 -231
-132 -229 132 -230 132 0 265 0 265 228 132 c125 72 230 130 233 130 3 -1 108
-60 232 -132z m980 0 l226 -130 1 -265 0 -265 -230 -132 -231 -132 -229 132
-230 132 0 265 0 265 228 132 c125 72 230 130 233 130 3 -1 108 -60 232 -132z
m981 0 l226 -130 0 -265 0 -265 -230 -132 -231 -132 -229 132 -230 132 0 265
0 265 228 132 c125 72 230 130 234 130 4 -1 109 -60 232 -132z m-9313 -847
l229 -132 0 -266 -1 -265 -229 -132 -230 -131 -228 132 -227 131 -3 266 -2
265 227 132 c126 72 229 132 231 132 2 0 106 -60 233 -132z m979 0 l230 -133
0 -265 -1 -265 -230 -132 -229 -131 -228 132 -227 131 -3 265 -2 265 227 132
c126 73 229 132 231 132 1 1 106 -59 232 -131z m980 0 l230 -133 0 -265 -1
-265 -230 -132 -229 -131 -228 132 -227 131 -3 265 -2 265 227 132 c126 73
229 132 231 132 1 1 106 -59 232 -131z m980 0 l230 -133 0 -265 -1 -265 -230
-132 -229 -131 -228 132 -227 131 -3 265 -2 265 227 132 c126 73 229 132 231
132 1 1 106 -59 232 -131z m980 0 l230 -133 -2 -265 -3 -265 -227 -131 -228
-132 -227 132 -228 131 -3 265 -2 265 227 132 c126 73 229 132 231 132 1 1
106 -59 232 -131z m980 0 l230 -133 -2 -265 -3 -265 -227 -131 -228 -132 -227
132 -228 131 -3 265 -2 265 227 132 c126 73 229 132 231 132 1 1 106 -59 232
-131z m980 0 l230 -133 -2 -265 -3 -265 -227 -131 -228 -132 -227 132 -228
131 -3 265 -2 265 227 132 c126 73 229 132 231 132 1 1 106 -59 232 -131z
m980 0 l230 -133 -2 -265 -3 -265 -227 -131 -228 -132 -229 131 -230 132 -1
265 0 265 228 132 c125 73 228 132 230 132 1 1 106 -59 232 -131z m980 0 l230
-133 -2 -265 -3 -265 -227 -131 -228 -132 -229 131 -230 132 -1 265 0 265 228
132 c125 73 228 132 230 132 1 1 106 -59 232 -131z m980 0 l230 -133 -2 -265
-3 -265 -227 -131 -228 -132 -229 131 -230 132 -1 265 0 265 228 132 c125 73
228 132 230 132 1 1 106 -59 232 -131z m982 0 l228 -132 -2 -265 -3 -266 -227
-131 -228 -132 -230 131 -229 132 -1 265 0 266 228 131 c125 73 229 132 231
133 2 0 107 -59 233 -132z m-10280 -855 l218 -126 -2 -265 -3 -266 -220 -127
c-121 -71 -227 -128 -235 -128 -8 0 -114 58 -235 128 l-220 128 -3 266 -2 265
227 131 c126 72 234 129 242 126 8 -3 112 -62 233 -132z m970 6 l228 -132 -2
-265 -3 -266 -220 -127 c-121 -71 -227 -128 -235 -128 -8 0 -114 58 -235 128
l-220 128 -3 265 -2 265 227 131 c126 73 230 132 232 132 2 0 107 -59 233
-131z m980 0 l228 -132 -2 -265 -3 -266 -220 -127 c-121 -71 -227 -128 -235
-128 -8 0 -114 58 -235 128 l-220 128 -3 265 -2 265 227 131 c126 73 230 132
232 132 2 0 107 -59 233 -131z m980 0 l228 -132 -2 -265 -3 -266 -220 -127
c-121 -71 -227 -128 -235 -128 -8 0 -114 58 -235 128 l-220 128 -3 265 -2 265
227 131 c126 73 230 132 232 132 2 0 107 -59 233 -131z m980 0 l228 -132 -2
-265 -3 -265 -220 -128 c-121 -70 -227 -128 -235 -128 -8 0 -114 58 -235 128
l-220 128 -3 265 -2 265 227 131 c126 73 230 132 232 132 2 0 107 -59 233
-131z m980 0 l228 -132 -2 -265 -3 -265 -220 -128 c-121 -70 -227 -128 -235
-128 -8 0 -114 58 -235 128 l-220 128 -3 265 -2 265 227 131 c126 73 230 132
232 132 2 0 107 -59 233 -131z m980 0 l228 -132 -2 -265 -3 -265 -220 -128
c-121 -70 -227 -128 -235 -128 -8 0 -114 58 -235 128 l-220 128 -3 265 -2 265
227 131 c126 73 230 132 232 132 2 0 107 -59 233 -131z m980 0 l228 -132 -2
-265 -3 -265 -220 -128 c-121 -70 -227 -128 -235 -128 -8 0 -114 58 -235 128
l-220 128 -3 265 -2 265 227 131 c126 73 230 132 232 132 2 0 107 -59 233
-131z m980 0 l228 -132 -2 -265 -3 -265 -220 -128 c-121 -70 -227 -128 -235
-128 -8 0 -114 57 -235 128 l-220 127 -3 266 -2 265 227 131 c126 73 230 132
232 132 2 0 107 -59 233 -131z m980 0 l228 -132 -2 -265 -3 -265 -220 -128
c-121 -70 -227 -128 -235 -128 -8 0 -114 57 -235 128 l-220 127 -3 266 -2 265
227 131 c126 73 230 132 232 132 2 0 107 -59 233 -131z m980 0 l228 -132 -2
-265 -3 -265 -220 -128 c-121 -70 -227 -128 -235 -128 -8 0 -114 57 -235 128
l-220 127 -3 266 -2 265 227 131 c126 73 230 132 232 132 2 0 107 -59 233
-131z m990 -6 l218 -125 -2 -265 -3 -266 -220 -128 c-121 -70 -227 -128 -235
-128 -8 0 -114 57 -235 128 l-220 127 -3 266 -2 265 227 132 c129 74 234 129
243 125 8 -3 113 -62 232 -131z m-11280 -842 l223 -130 0 -266 0 -266 -225
-130 c-123 -72 -231 -128 -240 -126 -8 3 -112 61 -230 130 l-215 125 0 267 0
267 220 128 c121 71 225 129 232 129 6 1 112 -57 235 -128z m980 0 l223 -130
0 -266 0 -266 -223 -130 c-123 -71 -227 -129 -231 -129 -5 0 -110 59 -234 131
l-227 131 0 263 0 263 223 130 c122 72 227 130 234 131 6 1 112 -57 235 -128z
m980 0 l223 -130 0 -266 0 -266 -223 -130 c-123 -71 -227 -129 -231 -129 -5 0
-110 59 -234 131 l-227 131 0 263 0 263 223 130 c122 72 227 130 234 131 6 1
112 -57 235 -128z m980 0 l223 -130 0 -266 0 -266 -223 -130 c-123 -71 -227
-129 -231 -129 -5 0 -110 59 -234 131 l-227 131 0 263 0 263 223 130 c122 72
227 130 234 131 6 1 112 -57 235 -128z m980 0 l223 -130 0 -266 0 -266 -223
-130 c-123 -71 -227 -129 -231 -129 -5 0 -110 59 -234 131 l-227 131 0 263 0
263 223 130 c122 72 227 130 234 131 6 1 112 -57 235 -128z m980 0 l223 -130
0 -266 0 -266 -223 -130 c-123 -71 -228 -129 -232 -129 -4 0 -109 58 -232 129
l-223 130 0 266 0 266 220 129 c121 70 225 129 232 129 6 1 112 -57 235 -128z
m980 0 l223 -130 0 -266 0 -266 -223 -130 c-123 -71 -228 -129 -232 -129 -4 0
-109 58 -232 129 l-223 130 0 266 0 266 220 129 c121 70 225 129 232 129 6 1
112 -57 235 -128z m980 0 l223 -130 0 -266 0 -266 -223 -130 c-123 -71 -228
-129 -232 -129 -4 0 -109 58 -232 129 l-223 130 0 266 0 266 220 129 c121 70
225 129 232 129 6 1 112 -57 235 -128z m981 -2 l227 -131 0 -263 0 -263 -227
-131 c-124 -72 -229 -131 -234 -131 -4 0 -108 58 -231 129 l-223 130 0 266 0
266 220 129 c121 70 225 129 231 129 6 1 113 -58 237 -130z m980 0 l227 -131
0 -263 0 -263 -227 -131 c-124 -72 -229 -131 -234 -131 -4 0 -108 58 -231 129
l-223 130 0 266 0 266 220 129 c121 70 225 129 231 129 6 1 113 -58 237 -130z
m980 0 l227 -131 0 -263 0 -263 -227 -131 c-124 -72 -229 -131 -234 -131 -4 0
-108 58 -231 129 l-223 130 0 266 0 266 220 129 c121 70 225 129 231 129 6 1
113 -58 237 -130z m980 0 l227 -131 0 -263 0 -263 -227 -131 c-124 -72 -229
-131 -234 -131 -4 0 -108 58 -231 129 l-223 130 0 266 0 266 220 129 c121 70
225 129 231 129 6 1 113 -58 237 -130z m980 2 l222 -129 0 -267 0 -267 -215
-125 c-118 -69 -222 -127 -230 -130 -9 -2 -117 54 -240 126 l-225 130 0 266 0
266 220 129 c121 70 226 129 233 129 6 1 112 -57 235 -128z m-11268 -850 l220
-127 3 -266 2 -265 -222 -129 c-123 -70 -230 -128 -238 -128 -8 0 -115 57
-238 128 l-222 128 2 265 3 266 220 128 c121 70 227 128 235 128 8 0 114 -57
235 -128z m980 0 l220 -127 3 -266 2 -265 -230 -132 -230 -133 -230 133 -230
132 2 265 3 265 220 128 c121 70 227 128 235 128 8 0 114 -57 235 -128z m980
0 l220 -127 3 -266 2 -265 -230 -132 -230 -133 -230 133 -230 132 2 265 3 265
220 128 c121 70 227 128 235 128 8 0 114 -57 235 -128z m980 0 l220 -127 3
-266 2 -265 -230 -132 -230 -133 -230 133 -230 132 2 265 3 265 220 128 c121
70 227 128 235 128 8 0 114 -57 235 -128z m980 0 l220 -128 3 -265 2 -265
-230 -132 -230 -133 -230 133 -230 132 2 265 3 265 220 128 c121 70 227 128
235 128 8 0 114 -58 235 -128z m980 0 l220 -128 3 -265 2 -265 -230 -132 -230
-133 -230 133 -230 132 2 265 3 265 220 128 c121 70 227 128 235 128 8 0 114
-58 235 -128z m980 0 l220 -128 3 -265 2 -265 -230 -132 -230 -133 -230 133
-230 132 2 265 3 265 220 128 c121 70 227 128 235 128 8 0 114 -58 235 -128z
m980 0 l220 -128 3 -265 2 -265 -230 -132 -230 -133 -230 133 -230 132 2 265
3 265 220 128 c121 70 227 128 235 128 8 0 114 -58 235 -128z m980 0 l220
-128 3 -265 2 -265 -230 -132 -230 -133 -230 133 -230 132 2 265 3 266 220
127 c121 71 227 128 235 128 8 0 114 -58 235 -128z m980 0 l220 -128 3 -265 2
-265 -230 -132 -230 -133 -230 133 -230 132 2 265 3 266 220 127 c121 71 227
128 235 128 8 0 114 -58 235 -128z m980 0 l220 -128 3 -265 2 -265 -230 -132
-230 -133 -230 133 -230 132 2 265 3 266 220 127 c121 71 227 128 235 128 8 0
114 -58 235 -128z m980 0 l220 -128 3 -266 2 -265 -222 -128 c-123 -71 -230
-128 -238 -128 -8 0 -115 58 -238 128 l-222 129 2 265 3 266 220 127 c121 71
227 128 235 128 8 0 114 -58 235 -128z m-10292 -846 l226 -130 1 -265 0 -266
-230 -132 -231 -133 -230 132 -229 133 2 265 3 266 225 131 c124 73 227 131
230 130 4 0 108 -59 233 -131z m980 0 l226 -130 1 -265 0 -265 -230 -133 -230
-132 -230 132 -230 133 2 265 3 265 225 131 c124 73 227 131 230 130 3 0 108
-59 233 -131z m980 0 l226 -130 1 -265 0 -265 -230 -133 -230 -132 -230 132
-230 133 2 265 3 265 225 131 c124 73 227 131 230 130 3 0 108 -59 233 -131z
m980 0 l226 -130 1 -265 0 -265 -230 -133 -230 -132 -230 132 -230 133 2 265
3 265 225 131 c124 73 227 131 230 130 3 0 108 -59 233 -131z m973 2 l229
-132 3 -265 2 -265 -230 -133 -230 -132 -230 132 -230 133 2 265 3 265 225
131 c124 73 225 132 226 133 1 1 104 -59 230 -132z m980 0 l229 -132 3 -265 2
-265 -230 -133 -230 -132 -230 132 -230 133 2 265 3 265 225 131 c124 73 225
132 226 133 1 1 104 -59 230 -132z m980 0 l229 -132 3 -265 2 -265 -230 -133
-230 -132 -230 132 -230 133 2 265 3 265 225 131 c124 73 225 132 226 133 1 1
104 -59 230 -132z m980 0 l229 -132 3 -265 2 -265 -230 -133 -230 -132 -230
132 -230 133 0 265 1 265 227 131 c125 73 227 132 228 133 1 1 104 -59 230
-132z m980 0 l229 -132 3 -265 2 -265 -230 -133 -230 -132 -230 132 -230 133
0 265 1 265 227 131 c125 73 227 132 228 133 1 1 104 -59 230 -132z m980 0
l229 -132 3 -265 2 -265 -230 -133 -230 -132 -230 132 -230 133 0 265 1 265
227 131 c125 73 227 132 228 133 1 1 104 -59 230 -132z m980 0 l229 -132 3
-266 2 -265 -229 -133 -230 -132 -231 133 -230 132 0 266 1 265 227 131 c125
73 227 132 228 133 1 1 104 -59 230 -132z m-9302 -852 l226 -130 0 -265 0
-265 -231 -132 -230 -133 -230 133 -229 132 0 265 0 265 228 132 c125 72 230
131 234 130 3 -1 108 -60 232 -132z m980 0 l226 -130 0 -265 0 -265 -230 -132
-230 -132 -230 132 -229 132 -1 265 0 265 228 132 c125 72 230 131 234 130 3
-1 108 -60 232 -132z m980 0 l226 -130 0 -265 0 -265 -230 -132 -230 -132
-230 132 -229 132 -1 265 0 265 228 132 c125 72 230 131 234 130 3 -1 108 -60
232 -132z m980 0 l226 -130 0 -265 0 -265 -230 -132 -230 -131 -230 131 -229
132 -1 265 0 265 228 132 c125 72 230 131 234 130 3 -1 108 -60 232 -132z
m980 0 l226 -130 0 -265 0 -265 -230 -132 -230 -131 -230 131 -230 132 0 265
0 265 228 132 c125 72 230 131 234 130 3 -1 108 -60 232 -132z m980 0 l226
-130 0 -265 0 -265 -230 -132 -230 -131 -230 131 -230 132 0 265 0 265 228
132 c125 72 230 131 234 130 3 -1 108 -60 232 -132z m980 0 l226 -130 0 -265
-1 -265 -229 -132 -230 -131 -230 131 -230 132 0 265 0 265 228 132 c125 72
230 131 234 130 3 -1 108 -60 232 -132z m980 0 l226 -130 0 -265 -1 -265 -229
-132 -230 -132 -230 132 -230 132 0 265 0 265 228 132 c125 72 230 131 233
130 4 -1 108 -60 233 -132z m980 0 l226 -130 0 -265 -1 -265 -229 -132 -230
-132 -230 132 -230 132 0 265 0 265 228 132 c125 72 230 131 233 130 4 -1 108
-60 233 -132z m980 0 l226 -130 0 -265 0 -265 -229 -132 -230 -133 -230 133
-231 132 0 265 0 265 228 132 c125 72 230 131 233 130 4 -1 108 -60 233 -132z
m-8332 -847 l228 -132 -2 -265 -3 -265 -228 -132 -228 -132 -229 132 -229 131
-1 265 0 266 228 131 c125 73 229 133 231 133 2 0 107 -59 233 -132z m980 0
l228 -132 -2 -265 -3 -265 -220 -128 c-121 -70 -227 -128 -235 -128 -8 1 -114
58 -235 128 l-220 128 -3 265 -2 264 227 132 c126 73 230 133 232 133 2 0 107
-59 233 -132z m980 0 l228 -132 -2 -265 -3 -265 -220 -128 c-121 -70 -227
-128 -235 -128 -8 1 -114 58 -235 128 l-220 128 -3 265 -2 264 227 132 c126
73 230 133 232 133 2 0 107 -59 233 -132z m979 0 l229 -132 -2 -265 -3 -265
-220 -128 c-121 -70 -227 -127 -235 -127 -8 0 -114 57 -235 127 l-220 128 -3
265 -2 265 227 132 c126 72 230 131 231 132 2 0 107 -59 233 -132z m980 0
l229 -132 -2 -265 -3 -265 -220 -128 c-121 -70 -227 -127 -235 -127 -8 0 -114
57 -235 127 l-220 128 -3 265 -2 265 227 132 c126 72 230 131 231 132 2 0 107
-59 233 -132z m980 0 l229 -132 -2 -265 -3 -265 -220 -128 c-121 -70 -227
-127 -235 -127 -8 0 -114 57 -235 127 l-220 128 -3 265 -2 265 227 132 c126
72 230 131 231 132 2 0 107 -59 233 -132z m980 0 l229 -133 -2 -264 -3 -265
-220 -128 c-121 -70 -227 -127 -235 -127 -8 0 -114 57 -235 127 l-220 128 -3
265 -2 265 227 132 c126 72 230 132 232 132 2 0 106 -60 232 -132z m980 0
l229 -133 -2 -264 -3 -265 -220 -128 c-121 -70 -227 -127 -235 -128 -8 0 -114
58 -235 128 l-220 128 -3 265 -2 265 227 132 c126 72 230 132 232 132 2 0 106
-60 232 -132z m980 0 l229 -132 0 -266 -1 -265 -229 -131 -229 -132 -228 132
-228 132 -3 265 -2 265 227 132 c126 72 230 132 232 132 2 0 106 -59 232 -132z
m-7339 -855 l218 -125 -2 -265 -3 -265 -222 -129 c-123 -71 -229 -129 -235
-128 -7 0 -112 57 -233 128 l-220 127 -3 266 -2 266 227 131 c130 75 234 129
243 125 8 -3 113 -62 232 -131z m980 0 l218 -125 -2 -265 -3 -265 -215 -125
c-118 -69 -222 -127 -231 -130 -8 -2 -116 54 -240 125 l-224 130 -3 265 -2
265 227 131 c130 75 234 129 243 125 8 -3 113 -62 232 -131z m980 0 l218 -125
-2 -265 -3 -265 -223 -129 c-123 -71 -227 -129 -232 -129 -5 0 -109 58 -232
129 l-223 129 -3 265 -2 265 227 131 c130 75 234 129 243 125 8 -3 113 -62
232 -131z m980 0 l218 -125 -2 -265 -3 -265 -223 -129 c-123 -71 -227 -129
-232 -129 -5 0 -109 58 -232 129 l-223 129 -3 265 -2 265 227 131 c130 75 234
129 243 125 8 -3 113 -62 232 -131z m980 0 l218 -125 -2 -265 -3 -265 -215
-125 c-118 -69 -222 -127 -231 -130 -8 -2 -116 54 -240 125 l-224 130 -3 265
-2 265 227 131 c130 75 234 129 243 125 8 -3 113 -62 232 -131z m980 0 l218
-125 -2 -265 -3 -265 -223 -129 c-123 -71 -227 -129 -232 -129 -5 0 -109 58
-232 129 l-223 129 -3 265 -2 265 227 131 c130 75 234 129 243 125 8 -3 113
-62 232 -131z m980 0 l218 -125 -2 -265 -3 -265 -224 -130 c-124 -71 -232
-127 -240 -125 -9 3 -113 61 -231 130 l-215 125 -3 265 -2 265 227 131 c130
75 234 129 243 125 8 -3 113 -62 232 -131z m980 0 l218 -125 -2 -266 -3 -266
-220 -127 c-121 -71 -226 -128 -233 -128 -6 -1 -112 57 -235 128 l-222 129 -3
265 -2 265 227 131 c130 75 234 129 243 125 8 -3 113 -62 232 -131z m-6380
-842 l223 -129 0 -267 0 -267 -223 -129 c-123 -71 -228 -129 -232 -129 -5 0
-109 58 -232 129 l-223 130 0 266 0 267 220 128 c121 71 225 129 232 129 6 1
112 -57 235 -128z m980 0 l223 -129 0 -267 0 -267 -223 -129 c-123 -71 -228
-129 -232 -129 -5 0 -109 58 -232 129 l-223 130 0 266 0 267 220 128 c121 71
225 129 232 129 6 1 112 -57 235 -128z m980 0 l223 -129 0 -267 0 -266 -223
-130 c-123 -71 -227 -129 -232 -129 -5 0 -109 58 -232 129 l-223 130 0 266 0
267 220 128 c121 71 225 129 232 129 6 1 112 -57 235 -128z m980 0 l223 -129
0 -267 0 -266 -223 -130 c-123 -71 -227 -129 -232 -129 -5 0 -109 58 -232 129
l-223 130 0 266 0 267 220 128 c121 71 225 129 232 129 6 1 112 -57 235 -128z
m980 0 l223 -129 0 -267 0 -266 -223 -130 c-123 -71 -227 -129 -232 -129 -5 0
-109 58 -232 129 l-223 130 0 266 0 267 220 128 c121 71 225 129 232 129 6 1
112 -57 235 -128z m980 0 l223 -129 0 -267 0 -266 -223 -130 c-123 -71 -227
-129 -232 -129 -4 0 -109 58 -232 129 l-223 129 0 267 0 267 220 128 c121 71
225 129 232 129 6 1 112 -57 235 -128z m980 0 l223 -129 0 -267 0 -266 -223
-130 c-123 -71 -227 -129 -232 -129 -4 0 -109 58 -232 129 l-223 129 0 267 0
267 220 128 c121 71 225 129 232 129 6 1 112 -57 235 -128z"/>
</g>
</svg>
