<?xml version="1.0" standalone="no"?>
<!DOCTYPE svg PUBLIC "-//W3C//DTD SVG 20010904//EN"
 "http://www.w3.org/TR/2001/REC-SVG-20010904/DTD/svg10.dtd">
<svg version="1.0" xmlns="http://www.w3.org/2000/svg"
 width="1280.000000pt" height="570.000000pt" viewBox="0 0 1280.000000 570.000000"
 preserveAspectRatio="xMidYMid meet">
<g transform="translate(0.000000,570.000000) scale(0.100000,-0.100000)"
fill="#000000" stroke="none">
<path d="M245 5680 c-3 -11 -18 -29 -32 -40 -22 -17 -40 -20 -119 -20 l-94 0
0 -30 0 -30 84 0 c47 0 95 -4 108 -9 21 -8 128 -154 128 -175 0 -15 -101 -156
-119 -166 -11 -5 -60 -10 -110 -10 l-91 0 0 -30 0 -29 103 -3 102 -3 59 -87
59 -88 -56 -85 -57 -85 -105 0 -105 0 0 -35 0 -34 103 -3 102 -3 57 -84 57
-84 -21 -38 c-11 -20 -37 -59 -57 -86 l-37 -48 -102 -3 -102 -3 0 -34 0 -35
105 0 104 0 51 -75 c28 -41 53 -82 56 -89 5 -14 -57 -117 -99 -163 -19 -21
-30 -23 -119 -23 l-98 0 0 -35 0 -35 105 0 104 0 51 -75 c28 -41 53 -81 56
-89 7 -17 -88 -161 -115 -176 -11 -5 -60 -10 -110 -10 l-91 0 0 -30 0 -30 91
0 c50 0 98 -4 108 -10 17 -9 121 -158 121 -174 0 -15 -101 -156 -119 -166 -11
-5 -60 -10 -110 -10 l-91 0 0 -35 0 -35 105 0 105 0 56 -85 57 -85 -57 -85
-56 -85 -105 0 -105 0 0 -35 0 -34 102 -3 103 -3 59 -87 59 -88 -56 -85 -57
-85 -105 0 -105 0 0 -35 0 -34 103 -3 102 -3 59 -87 59 -88 -56 -85 -57 -85
-105 0 -105 0 0 -35 0 -34 103 -3 102 -3 59 -87 59 -88 -56 -85 -57 -85 -105
0 -105 0 0 -35 0 -34 103 -3 102 -3 59 -87 59 -88 -56 -85 -57 -85 -105 0
-105 0 0 -35 0 -35 99 0 100 0 28 -34 c15 -19 43 -60 62 -91 l34 -55 -57 -85
-56 -85 -105 0 -105 0 0 -35 0 -35 98 0 c89 0 100 -2 119 -23 42 -46 104 -149
99 -163 -3 -7 -28 -48 -56 -89 l-51 -75 -104 0 -105 0 0 -35 0 -35 100 0 c110
0 117 -4 156 -75 17 -32 22 -35 66 -35 27 0 48 2 48 6 0 3 -18 32 -40 64 -22
32 -40 67 -40 76 0 23 77 141 104 159 15 11 49 15 121 15 93 0 103 -2 122 -22
42 -47 104 -150 99 -164 -3 -8 -24 -41 -46 -74 l-41 -60 49 0 c41 0 50 4 59
23 6 12 23 37 38 55 l27 32 108 0 108 0 27 -32 c15 -18 32 -43 38 -55 9 -19
18 -23 59 -23 26 0 48 2 48 6 0 3 -17 31 -38 62 -21 31 -42 62 -45 68 -9 15
85 159 112 173 11 6 65 11 120 11 l100 0 28 -34 c15 -19 43 -60 62 -90 l34
-56 -47 -70 -46 -70 48 0 c41 0 50 4 59 23 6 12 23 37 38 55 l27 32 108 0 108
0 27 -32 c15 -18 32 -43 38 -55 9 -19 18 -23 59 -23 26 0 48 2 48 6 0 3 -17
31 -38 62 -21 31 -42 62 -45 68 -9 15 85 159 112 174 13 6 62 10 123 8 l103
-3 59 -87 59 -87 -46 -71 -47 -70 48 0 c44 0 49 3 66 34 38 72 51 77 172 74
l109 -3 35 -52 c34 -51 37 -52 83 -53 26 0 47 2 47 6 0 3 -17 31 -38 62 -21
31 -42 62 -45 68 -9 15 85 159 112 174 13 6 62 10 123 8 l103 -3 59 -87 59
-87 -46 -71 -47 -70 48 0 c44 0 49 3 66 34 38 72 51 77 172 74 l109 -3 35 -52
c34 -51 37 -52 83 -53 26 0 47 2 47 5 0 3 -21 36 -46 74 l-46 69 50 74 c27 40
56 79 65 86 10 9 47 12 123 10 l109 -3 59 -86 58 -87 -39 -58 c-22 -33 -43
-65 -47 -71 -5 -10 5 -13 41 -13 47 0 49 1 78 51 16 27 39 52 50 55 11 3 65 4
120 2 l100 -3 35 -52 c34 -51 36 -52 84 -53 l48 0 -18 28 c-10 15 -31 48 -47
74 l-29 46 50 74 c27 40 56 79 65 86 10 9 47 12 123 10 l109 -3 59 -86 58 -87
-39 -58 c-22 -33 -43 -65 -47 -71 -5 -10 5 -13 41 -13 47 0 49 1 78 51 16 27
39 52 50 55 11 3 65 4 120 2 l100 -3 35 -52 c34 -51 36 -52 84 -53 l48 0 -18
28 c-10 15 -31 48 -47 74 l-29 46 53 79 c29 43 57 81 63 86 6 4 61 6 121 5
l110 -3 59 -86 58 -87 -39 -58 c-22 -33 -43 -65 -47 -71 -5 -10 5 -13 41 -13
47 0 49 1 78 51 16 27 39 52 50 55 11 3 65 4 120 2 l100 -3 35 -52 c34 -51 36
-52 84 -53 l48 0 -18 28 c-10 15 -31 48 -47 74 l-29 46 53 79 c29 43 57 81 63
85 14 10 208 10 222 0 13 -9 114 -158 114 -169 0 -4 -18 -35 -40 -68 -22 -33
-40 -63 -40 -67 0 -5 19 -8 43 -8 39 1 44 4 77 53 l35 52 117 3 116 3 34 -55
c32 -55 34 -55 81 -56 26 0 47 2 47 6 0 3 -18 32 -40 64 -22 32 -40 67 -40 77
0 21 80 140 107 161 11 8 53 12 118 12 93 0 103 -2 122 -22 42 -47 104 -150
99 -164 -3 -8 -24 -41 -46 -74 l-41 -60 49 0 c41 0 50 4 59 23 6 12 23 37 38
55 l27 32 108 0 c121 0 127 -3 166 -75 17 -32 22 -35 66 -35 27 0 48 2 48 6 0
3 -18 32 -40 64 -22 32 -40 67 -40 76 0 23 77 141 104 159 15 11 49 15 121 15
93 0 103 -2 122 -22 42 -47 104 -150 99 -164 -3 -8 -24 -41 -46 -74 l-41 -60
49 0 c41 0 50 4 59 23 6 12 23 37 38 55 l27 32 108 0 108 0 27 -32 c15 -18 32
-43 38 -55 9 -19 18 -23 59 -23 26 0 48 2 48 6 0 3 -18 32 -40 64 -22 32 -40
67 -40 76 0 23 77 141 104 159 15 11 49 15 122 15 l103 0 28 -34 c15 -19 43
-60 62 -90 l34 -56 -47 -70 -46 -70 48 0 c41 0 50 4 59 23 6 12 23 37 38 55
l27 32 108 0 108 0 27 -32 c15 -18 32 -43 38 -55 9 -19 18 -23 59 -23 26 0 48
2 48 6 0 3 -17 31 -38 62 -21 31 -42 62 -45 68 -9 15 85 159 112 174 13 6 62
10 123 8 l103 -3 59 -87 59 -87 -46 -71 -47 -70 48 0 c44 0 49 3 66 34 38 72
51 77 172 74 l109 -3 35 -52 c34 -51 37 -52 83 -53 26 0 47 2 47 6 0 3 -17 31
-38 62 -21 31 -42 62 -45 68 -9 15 85 159 112 174 13 6 62 10 123 8 l103 -3
59 -86 58 -87 -46 -68 -46 -69 47 -3 c29 -2 49 1 51 8 2 6 18 30 36 53 l32 42
114 0 115 0 35 -52 c34 -51 37 -52 83 -53 26 0 47 2 47 6 0 3 -17 31 -38 62
-21 31 -42 62 -45 68 -9 15 85 159 112 174 13 6 62 10 123 8 l103 -3 59 -86
58 -87 -46 -68 -46 -69 47 -3 c29 -2 49 1 51 8 2 6 18 30 36 53 l32 42 114 0
115 0 35 -52 c34 -51 37 -52 83 -53 26 0 47 2 47 5 0 3 -21 36 -46 74 l-46 69
50 74 c27 40 56 79 65 86 10 9 47 12 123 10 l109 -3 59 -86 58 -87 -39 -58
c-22 -33 -43 -65 -47 -71 -5 -10 5 -13 41 -13 45 0 50 2 67 35 39 73 45 75
171 75 l115 0 0 35 0 35 -114 0 -115 0 -28 34 c-15 19 -43 59 -61 90 l-34 55
53 78 c29 43 57 81 63 85 6 4 62 8 124 8 l112 0 0 35 0 35 -119 0 -118 0 -45
68 c-77 115 -75 102 -18 187 28 41 59 79 69 85 11 5 67 10 125 10 l106 0 0 35
0 35 -119 0 -118 0 -45 68 c-75 113 -74 100 -18 185 27 42 58 80 69 86 11 6
67 11 125 11 l106 0 0 35 0 35 -119 0 -118 0 -45 68 c-75 113 -74 100 -18 185
27 42 58 81 70 87 13 7 61 10 126 8 l104 -3 0 38 0 37 -118 0 -119 0 -57 86
-57 86 33 55 c18 31 47 71 65 90 l32 34 110 -3 111 -3 0 38 0 37 -118 0 -119
0 -57 86 -57 86 33 55 c18 31 47 71 65 90 l32 34 110 -3 111 -3 0 38 0 37
-118 0 -119 0 -57 86 -57 85 25 42 c13 23 38 61 55 85 l31 42 120 0 120 0 0
38 0 37 -85 -4 c-140 -5 -144 -3 -209 95 l-57 86 33 55 c18 30 45 69 59 86
l27 32 116 0 116 0 0 35 0 35 -95 -3 c-53 -2 -106 -1 -119 2 -14 3 -44 37 -80
92 l-58 86 56 84 56 84 120 0 120 0 0 38 0 37 -96 -3 c-53 -2 -107 -1 -118 2
-13 3 -46 41 -80 91 l-59 85 57 85 56 85 120 0 120 0 0 38 0 37 -96 -3 c-53
-2 -107 -1 -119 2 -23 6 -125 150 -125 177 0 21 87 147 110 159 13 7 62 10
126 8 l104 -3 0 38 0 37 -118 0 -119 0 -57 86 -57 86 33 55 c18 31 47 71 65
90 l32 34 110 -3 111 -3 0 35 0 35 -95 -3 c-53 -2 -106 -1 -119 2 -14 3 -44
37 -80 92 l-57 86 33 55 c18 30 45 69 59 86 l27 32 116 0 116 0 0 35 0 35
-109 -3 c-117 -4 -123 -2 -161 56 -13 20 -22 23 -63 20 l-47 -3 36 -53 36 -54
-56 -84 -56 -84 -119 0 -118 0 -57 86 -57 85 30 48 c17 26 31 51 31 54 0 4
-20 7 -45 7 -25 0 -45 -4 -45 -9 0 -5 -13 -23 -29 -40 -29 -31 -30 -31 -130
-31 -107 0 -115 3 -151 58 -13 20 -22 23 -63 20 l-47 -3 36 -53 36 -54 -56
-84 -56 -84 -119 0 -118 0 -45 68 c-72 109 -71 102 -37 153 16 24 29 47 29 52
0 4 -20 7 -45 7 -25 0 -45 -4 -45 -9 0 -5 -13 -23 -29 -40 -29 -30 -31 -31
-124 -31 -53 0 -102 3 -111 6 -9 3 -25 21 -37 40 -19 31 -25 34 -70 34 l-49 0
36 -55 37 -55 -57 -85 -56 -85 -119 0 -118 0 -45 68 c-72 109 -71 102 -37 153
16 24 29 47 29 52 0 4 -20 7 -45 7 -25 0 -45 -4 -45 -9 0 -5 -13 -23 -29 -40
-29 -30 -31 -31 -124 -31 -53 0 -102 3 -111 6 -9 3 -25 21 -37 40 -19 31 -25
34 -70 34 l-49 0 36 -55 37 -55 -57 -85 -56 -85 -119 0 -118 0 -45 68 c-72
109 -71 102 -37 153 16 24 29 47 29 52 0 4 -20 7 -45 7 -25 0 -45 -4 -45 -9 0
-5 -13 -23 -29 -40 -29 -30 -31 -31 -124 -31 -53 0 -102 3 -111 6 -9 3 -25 21
-37 40 -19 31 -25 34 -70 34 l-49 0 36 -55 36 -54 -25 -43 c-14 -24 -39 -62
-56 -85 l-31 -43 -119 0 -118 0 -52 78 c-28 43 -51 86 -51 96 0 9 14 37 30 62
l31 44 -50 0 c-41 0 -51 -4 -56 -20 -14 -45 -52 -60 -151 -60 -51 0 -99 3
-108 6 -9 3 -25 21 -37 40 -19 31 -25 34 -70 34 l-50 0 36 -52 c19 -29 35 -57
35 -63 -1 -5 -24 -44 -53 -85 l-52 -75 -121 -3 -121 -3 -52 79 c-28 43 -51 86
-51 96 0 9 14 37 30 62 l31 44 -50 0 c-41 0 -51 -4 -56 -20 -14 -45 -52 -60
-151 -60 -51 0 -99 3 -108 6 -9 3 -25 21 -37 40 -19 31 -25 34 -70 34 l-50 0
36 -52 c19 -29 35 -57 35 -63 -1 -5 -24 -44 -53 -85 l-52 -75 -120 -3 -120 -3
-53 78 c-28 43 -52 86 -52 96 0 10 14 38 30 63 l31 44 -50 0 c-41 0 -51 -4
-56 -20 -3 -11 -18 -29 -32 -40 -22 -17 -40 -20 -124 -20 -94 0 -99 1 -124 27
-14 15 -25 33 -25 40 0 9 -16 13 -50 13 -27 0 -50 -3 -50 -7 0 -5 14 -28 30
-53 16 -25 30 -49 30 -55 -1 -5 -24 -44 -53 -85 l-52 -75 -116 -3 -116 -3 -57
87 -58 86 31 50 c17 27 31 51 31 54 0 2 -20 4 -45 4 -25 0 -45 -4 -45 -9 0 -5
-13 -23 -29 -40 -29 -31 -30 -31 -130 -31 -93 0 -104 2 -124 23 -12 13 -26 31
-32 41 -8 14 -20 17 -58 14 l-47 -3 36 -53 36 -54 -56 -84 -56 -84 -119 0
-118 0 -57 86 -58 86 31 50 c17 27 31 51 31 54 0 2 -20 4 -45 4 -25 0 -45 -4
-45 -9 0 -5 -13 -23 -29 -40 -29 -31 -30 -31 -130 -31 -107 0 -115 3 -151 58
-13 20 -22 23 -63 20 l-47 -3 36 -53 36 -54 -56 -84 -56 -84 -119 0 -118 0
-57 86 -57 85 30 48 c17 26 31 51 31 54 0 4 -20 7 -45 7 -25 0 -45 -4 -45 -9
0 -5 -13 -23 -29 -40 -29 -31 -30 -31 -130 -31 -107 0 -115 3 -151 58 -13 20
-22 23 -63 20 l-47 -3 36 -53 36 -54 -56 -84 -56 -84 -119 0 -118 0 -57 86
-57 85 30 48 c17 26 31 51 31 54 0 4 -20 7 -45 7 -25 0 -45 -4 -45 -9 0 -5
-13 -23 -29 -40 -29 -30 -31 -31 -124 -31 -53 0 -102 3 -111 6 -9 3 -25 21
-37 40 -19 31 -25 34 -70 34 l-49 0 36 -55 37 -55 -57 -85 -56 -85 -119 0
-118 0 -45 68 c-72 109 -71 102 -37 153 16 24 29 47 29 52 0 4 -20 7 -45 7
-25 0 -45 -4 -45 -9 0 -5 -13 -23 -29 -40 -29 -30 -31 -31 -124 -31 -53 0
-102 3 -111 6 -9 3 -25 21 -37 40 -19 31 -25 34 -70 34 l-49 0 36 -55 37 -55
-57 -85 -56 -85 -119 0 -118 0 -45 68 c-73 110 -72 102 -32 160 l35 52 -51 0
c-27 0 -50 -4 -50 -9 0 -5 -13 -23 -29 -40 -29 -30 -31 -31 -124 -31 -53 0
-102 3 -111 6 -9 3 -25 21 -37 40 -19 31 -25 34 -70 34 l-49 0 36 -55 37 -55
-57 -85 -56 -85 -119 0 -118 0 -45 68 c-73 110 -72 102 -32 160 l35 52 -51 0
c-27 0 -50 -4 -50 -9 0 -5 -13 -23 -29 -40 -29 -30 -31 -31 -124 -31 -53 0
-102 3 -111 6 -9 3 -25 21 -37 40 -19 31 -25 34 -70 34 l-49 0 36 -55 36 -54
-25 -43 c-14 -24 -39 -62 -56 -85 l-31 -43 -119 0 -118 0 -52 78 c-28 43 -51
86 -51 96 0 9 14 37 30 62 l31 44 -50 0 c-41 0 -51 -4 -56 -20z m789 -130 c12
-4 46 -44 75 -89 l53 -81 -33 -56 c-19 -32 -48 -72 -65 -90 -31 -34 -32 -34
-120 -34 -49 0 -99 3 -111 6 -24 7 -123 149 -123 178 0 30 97 164 122 169 43
7 180 6 202 -3z m838 1 c14 -5 47 -44 77 -90 l54 -81 -53 -80 c-29 -45 -61
-85 -71 -90 -27 -15 -202 -12 -221 3 -28 21 -118 169 -111 181 47 79 106 155
125 159 44 8 177 7 200 -2z m840 0 c14 -5 47 -44 77 -90 l54 -81 -53 -80 c-29
-45 -61 -85 -71 -90 -27 -15 -202 -12 -221 3 -28 21 -118 169 -111 181 47 79
106 155 125 159 44 8 177 7 200 -2z m840 0 c14 -5 47 -44 77 -90 l54 -81 -53
-80 c-29 -45 -61 -85 -71 -90 -27 -15 -202 -12 -221 3 -28 21 -118 169 -111
181 47 79 106 155 125 159 44 8 177 7 200 -2z m835 2 c14 -3 45 -37 79 -89
l57 -83 -53 -81 c-29 -45 -61 -85 -71 -90 -27 -15 -202 -12 -221 3 -8 6 -39
47 -68 90 l-52 79 56 83 c37 56 63 85 78 88 35 6 170 7 195 0z m840 1 c12 -3
45 -41 78 -91 l56 -85 -52 -79 c-29 -44 -60 -84 -70 -89 -27 -15 -202 -12
-221 3 -8 6 -39 47 -67 90 l-52 78 24 42 c47 79 86 125 109 130 36 7 170 7
195 1z m840 0 c12 -4 44 -40 78 -91 l56 -85 -52 -79 c-29 -44 -60 -84 -70 -89
-27 -15 -202 -12 -221 3 -8 6 -39 47 -67 90 l-52 78 24 42 c47 79 86 125 109
130 35 6 170 7 195 1z m835 -3 c21 -8 128 -154 128 -175 0 -15 -101 -156 -119
-166 -21 -10 -171 -14 -206 -4 -22 6 -125 154 -125 179 0 29 98 163 122 168
44 8 177 7 200 -2z m840 0 c21 -8 128 -154 128 -175 0 -15 -101 -156 -119
-166 -21 -11 -172 -14 -206 -4 -23 6 -125 152 -125 178 0 29 98 164 122 169
44 8 177 7 200 -2z m847 -1 c10 -5 42 -45 71 -90 l53 -80 -53 -80 c-29 -45
-61 -85 -71 -90 -27 -15 -202 -12 -221 3 -28 21 -118 169 -111 181 47 79 106
155 125 159 45 9 190 7 207 -3z m833 1 c14 -5 47 -44 77 -90 l54 -81 -53 -80
c-29 -45 -61 -85 -71 -90 -27 -15 -202 -12 -221 3 -28 21 -118 169 -111 181
47 79 106 155 125 159 44 8 177 7 200 -2z m840 0 c14 -5 47 -44 77 -90 l54
-81 -53 -80 c-29 -45 -61 -85 -71 -90 -27 -15 -202 -12 -221 3 -28 21 -118
169 -111 181 47 79 106 155 125 159 44 8 177 7 200 -2z m840 0 c14 -5 47 -44
77 -90 l54 -81 -53 -80 c-29 -45 -61 -85 -71 -90 -27 -15 -202 -12 -221 3 -28
21 -118 169 -111 181 47 79 106 155 125 159 44 8 177 7 200 -2z m835 3 c12 -3
45 -41 78 -91 l56 -85 -52 -79 c-29 -44 -60 -84 -70 -89 -27 -15 -202 -12
-221 3 -8 6 -39 47 -68 90 l-52 79 56 83 c37 56 63 85 78 88 36 7 170 7 195 1z
m-11361 -214 l54 0 56 -85 57 -85 -53 -80 c-29 -45 -61 -85 -71 -90 -19 -11
-171 -13 -206 -4 -24 7 -123 149 -123 178 0 9 22 50 50 91 45 67 53 74 87 78
21 2 51 3 67 1 16 -2 53 -4 82 -4z m866 2 c23 -2 38 -17 84 -87 l57 -85 -53
-80 c-29 -45 -61 -85 -71 -90 -19 -11 -171 -13 -206 -4 -22 6 -126 153 -126
178 0 6 23 46 51 89 l52 76 67 3 c66 3 88 3 145 0z m1690 -2 c11 0 40 -33 74
-85 l57 -85 -54 -81 c-29 -45 -63 -85 -77 -90 -26 -10 -165 -12 -199 -3 -22 6
-126 153 -126 178 0 6 23 46 51 89 l52 76 83 4 c45 2 91 2 102 0 11 -1 28 -3
37 -3z m840 1 c14 -5 47 -44 77 -90 l54 -81 -54 -81 c-30 -46 -63 -85 -77 -90
-26 -10 -165 -12 -199 -3 -22 6 -126 153 -126 178 0 6 23 46 51 89 l52 76 93
4 c50 1 95 4 99 5 4 1 17 -2 30 -7z m777 -1 l78 0 57 -86 57 -86 -52 -80 c-30
-45 -63 -84 -77 -89 -26 -10 -165 -12 -199 -3 -12 3 -45 41 -78 91 l-56 84 25
42 c66 113 103 144 154 130 8 -1 49 -3 91 -3z m885 0 c30 0 38 -7 90 -86 l57
-86 -52 -80 c-30 -45 -63 -84 -77 -89 -26 -10 -165 -12 -199 -3 -12 3 -45 41
-78 91 l-56 84 25 42 c13 23 38 61 55 84 30 42 31 42 103 45 40 2 79 3 86 1 8
-2 28 -3 46 -3z m1648 0 l57 0 51 -75 c28 -41 53 -81 56 -89 7 -17 -88 -161
-115 -176 -21 -10 -171 -14 -206 -4 -22 6 -125 154 -125 179 0 9 22 49 50 90
47 70 52 74 92 78 24 2 52 2 63 1 11 -2 46 -4 77 -4z m2555 0 c17 0 37 -21 79
-85 l57 -85 -53 -80 c-29 -45 -61 -85 -71 -90 -19 -11 -171 -13 -206 -4 -22 6
-126 153 -126 178 0 6 23 46 51 89 l52 76 78 4 c42 2 86 2 97 0 11 -1 30 -3
42 -3z m850 1 c7 -1 38 -39 69 -86 l57 -85 -54 -81 c-29 -45 -63 -85 -77 -90
-26 -10 -165 -12 -199 -3 -22 6 -126 153 -126 178 0 6 23 46 51 88 41 61 57
77 79 80 24 3 164 2 200 -1z m825 0 c23 -1 37 -15 84 -86 l57 -85 -54 -81
c-29 -45 -63 -85 -77 -90 -26 -10 -165 -12 -199 -3 -22 6 -126 153 -126 178 0
6 23 46 51 88 57 85 57 84 172 81 36 -1 77 -2 92 -2z m830 0 c36 -1 41 -5 94
-86 l57 -85 -54 -81 c-29 -45 -63 -85 -77 -90 -26 -10 -165 -12 -199 -3 -12 3
-44 41 -77 90 -64 96 -65 82 12 194 41 60 57 67 157 63 28 -1 67 -2 87 -2z
m-9976 -86 l57 -85 -53 -80 c-29 -45 -61 -85 -71 -90 -19 -11 -171 -13 -206
-4 -22 6 -126 153 -126 178 0 6 23 47 52 89 l52 77 119 0 120 0 56 -85z m4184
10 c28 -41 53 -81 56 -89 7 -17 -88 -161 -115 -176 -21 -11 -161 -14 -198 -4
-12 3 -45 41 -78 91 l-56 84 25 42 c13 23 38 61 55 85 l31 42 115 0 114 0 51
-75z m1686 -10 l57 -85 -53 -80 c-29 -45 -61 -85 -71 -90 -19 -11 -170 -13
-205 -4 -23 6 -124 150 -124 177 0 10 23 51 50 92 l51 75 119 0 120 0 56 -85z
m840 0 l57 -85 -53 -80 c-29 -45 -61 -85 -71 -90 -19 -11 -171 -13 -206 -4
-22 6 -126 153 -126 178 0 6 23 47 52 89 l52 77 119 0 120 0 56 -85z m-7972
-207 l59 -88 -56 -85 -57 -85 -119 0 -118 0 -52 78 c-28 43 -51 86 -51 96 0
20 94 162 112 169 7 3 60 5 118 4 l105 -2 59 -87z m840 0 l59 -88 -56 -85 -57
-85 -119 0 -118 0 -53 81 c-30 44 -53 86 -53 93 0 16 99 163 115 169 7 3 60 5
118 4 l105 -2 59 -87z m840 0 l59 -88 -56 -85 -57 -85 -119 0 -118 0 -53 81
c-30 44 -53 86 -53 93 0 16 99 163 115 169 7 3 60 5 118 4 l105 -2 59 -87z
m840 0 l59 -88 -56 -85 -57 -85 -119 0 -118 0 -53 81 c-30 44 -53 86 -53 93 0
16 99 163 115 169 7 3 60 5 118 4 l105 -2 59 -87z m839 0 l61 -87 -57 -86 -57
-85 -119 0 -118 0 -57 86 -57 86 33 55 c18 30 47 70 65 89 l31 35 108 -3 107
-3 60 -87z m779 80 c8 -7 39 -48 68 -91 l52 -79 -56 -84 -56 -84 -119 0 -118
0 -57 86 -57 86 33 55 c18 31 47 71 64 89 l31 34 100 0 c64 0 105 -4 115 -12z
m840 0 c8 -7 39 -48 68 -91 l52 -79 -56 -84 -56 -84 -119 0 -118 0 -57 86 -57
86 33 55 c18 31 47 71 64 89 l31 34 100 0 c64 0 105 -4 115 -12z m891 -77 c31
-47 57 -90 57 -95 -1 -6 -24 -45 -53 -86 l-52 -75 -120 -2 -120 -3 -52 80
c-29 44 -53 87 -53 95 0 20 94 161 112 168 7 3 60 5 118 4 l105 -2 58 -84z
m840 0 c31 -47 57 -90 57 -95 -1 -6 -24 -45 -53 -86 l-52 -75 -120 -3 -120 -2
-53 77 c-28 43 -52 86 -52 96 0 21 93 163 112 170 7 3 60 5 118 4 l105 -2 58
-84z m841 -3 l59 -88 -56 -85 -57 -85 -119 0 -118 0 -52 78 c-28 43 -51 86
-51 96 0 20 94 162 112 169 7 3 60 5 118 4 l105 -2 59 -87z m840 0 l59 -88
-56 -85 -57 -85 -119 0 -118 0 -53 81 c-30 44 -53 86 -53 93 0 16 99 163 115
169 7 3 60 5 118 4 l105 -2 59 -87z m840 0 l59 -88 -56 -85 -57 -85 -119 0
-118 0 -53 81 c-30 44 -53 86 -53 93 0 16 99 163 115 169 7 3 60 5 118 4 l105
-2 59 -87z m840 0 l59 -88 -56 -85 -57 -85 -119 0 -118 0 -53 81 c-30 44 -53
86 -53 93 0 16 99 163 115 169 7 3 60 5 118 4 l105 -2 59 -87z m840 0 l59 -88
-56 -85 -57 -85 -119 0 -118 0 -53 81 c-30 44 -53 86 -53 93 0 16 99 163 115
169 7 3 60 5 118 4 l105 -2 59 -87z m-11395 -128 c10 -5 42 -45 71 -90 l53
-80 -53 -80 c-29 -45 -61 -85 -71 -90 -19 -11 -171 -13 -204 -4 -22 6 -125
154 -125 179 0 29 98 163 122 168 45 9 190 7 207 -3z m840 0 c10 -5 42 -45 71
-90 l53 -80 -53 -80 c-29 -45 -61 -85 -71 -90 -19 -11 -170 -13 -205 -4 -21 5
-127 153 -127 177 0 27 102 166 125 170 45 9 190 7 207 -3z m840 0 c10 -5 42
-45 71 -90 l53 -80 -53 -80 c-29 -45 -61 -85 -71 -90 -27 -15 -202 -12 -221 3
-28 21 -118 169 -111 181 39 66 106 155 120 159 34 9 194 7 212 -3z m840 0
c10 -5 42 -45 71 -90 l53 -80 -53 -80 c-29 -45 -61 -85 -71 -90 -27 -15 -202
-12 -221 3 -28 21 -118 169 -111 181 47 79 106 155 125 159 45 9 190 7 207 -3z
m840 0 c10 -5 42 -45 71 -90 l53 -80 -53 -80 c-29 -45 -61 -85 -71 -90 -27
-15 -202 -12 -221 3 -28 21 -118 169 -111 181 39 66 106 155 120 159 34 9 194
7 212 -3z m840 0 c10 -5 42 -45 71 -90 l53 -80 -53 -80 c-29 -45 -61 -85 -71
-90 -27 -15 -202 -12 -221 3 -9 6 -39 47 -67 91 -57 88 -58 77 11 179 22 32
49 62 61 67 30 12 194 12 216 0z m843 -2 c8 -7 39 -48 68 -91 l52 -78 -53 -80
c-29 -44 -60 -84 -70 -89 -27 -15 -202 -12 -221 3 -8 6 -39 47 -67 90 -58 87
-59 76 11 180 22 32 49 62 61 67 35 14 201 12 219 -2z m827 2 c17 -9 121 -158
121 -174 0 -15 -101 -156 -119 -166 -28 -15 -194 -13 -213 3 -16 12 -118 161
-118 172 0 17 105 157 123 165 30 12 184 12 206 0z m840 0 c17 -9 121 -158
121 -174 0 -15 -101 -156 -119 -166 -21 -10 -171 -14 -206 -4 -22 6 -125 154
-125 179 0 29 98 163 122 168 45 9 190 7 207 -3z m840 0 c10 -5 42 -45 71 -90
l53 -80 -53 -80 c-29 -45 -61 -85 -71 -90 -19 -11 -171 -13 -204 -4 -22 6
-125 154 -125 179 0 29 98 163 122 168 45 9 190 7 207 -3z m840 0 c10 -5 42
-45 71 -90 l53 -80 -53 -80 c-29 -45 -61 -85 -71 -90 -27 -15 -202 -12 -221 3
-28 21 -118 169 -111 181 47 79 106 155 125 159 45 9 190 7 207 -3z m840 0
c10 -5 42 -45 71 -90 l53 -80 -53 -80 c-29 -45 -61 -85 -71 -90 -27 -15 -202
-12 -221 3 -28 21 -118 169 -111 181 47 79 106 155 125 159 45 9 190 7 207 -3z
m840 0 c10 -5 42 -45 71 -90 l53 -80 -53 -80 c-29 -45 -61 -85 -71 -90 -27
-15 -202 -12 -221 3 -28 21 -118 169 -111 181 47 79 106 155 125 159 45 9 190
7 207 -3z m840 0 c10 -5 42 -45 71 -90 l53 -80 -53 -80 c-29 -45 -61 -85 -71
-90 -27 -15 -202 -12 -221 3 -9 6 -39 47 -67 91 -57 88 -58 77 11 179 22 32
49 62 61 67 30 12 194 12 216 0z m856 -16 c13 -14 42 -54 65 -90 l42 -64 -52
-81 c-29 -44 -61 -84 -71 -89 -27 -15 -202 -12 -221 3 -8 6 -39 47 -67 90 -58
87 -59 76 11 180 22 32 49 62 61 67 12 5 64 9 115 9 87 1 94 -1 117 -25z
m-11283 -273 l57 -84 -21 -38 c-11 -20 -37 -59 -57 -86 l-37 -48 -94 -3 c-52
-2 -105 0 -116 2 -21 6 -124 150 -124 175 0 16 96 158 112 164 7 3 60 5 118 4
l105 -2 57 -84z m840 0 l57 -84 -21 -38 c-11 -20 -37 -59 -57 -86 l-37 -48
-94 -3 c-52 -2 -105 0 -116 2 -21 6 -124 150 -124 175 0 16 96 158 112 164 7
3 60 5 118 4 l105 -2 57 -84z m840 0 l57 -84 -21 -38 c-11 -20 -37 -59 -57
-86 l-37 -48 -94 -3 c-52 -2 -105 0 -116 2 -21 6 -124 150 -124 175 0 16 96
158 112 164 7 3 60 5 118 4 l105 -2 57 -84z m835 9 c29 -41 52 -84 52 -95 0
-11 -23 -54 -52 -95 l-52 -75 -95 -3 c-52 -2 -105 0 -116 2 -22 6 -124 151
-124 176 0 20 79 138 104 156 16 11 46 14 126 12 l105 -3 52 -75z m840 0 c29
-41 52 -84 52 -95 0 -11 -23 -54 -52 -95 l-52 -75 -95 -3 c-52 -2 -105 0 -116
2 -22 6 -124 151 -124 176 0 20 79 138 104 156 16 11 46 14 126 12 l105 -3 52
-75z m840 0 c29 -41 52 -84 52 -95 0 -11 -23 -54 -52 -95 l-52 -75 -95 -3
c-52 -2 -105 0 -117 3 -25 6 -123 143 -123 171 0 23 77 141 104 160 16 11 46
14 126 12 l105 -3 52 -75z m838 -2 c30 -46 55 -90 55 -98 -1 -8 -24 -49 -53
-90 l-52 -75 -95 -3 c-52 -2 -105 0 -117 3 -25 6 -123 143 -123 171 0 23 77
141 104 159 15 11 50 15 123 15 l103 0 55 -82z m821 17 c83 -117 81 -102 23
-191 -29 -44 -57 -82 -63 -86 -19 -13 -211 -9 -228 5 -22 17 -108 149 -108
165 0 17 96 159 112 165 7 3 60 5 118 4 l104 -2 42 -60z m856 -24 l57 -84 -21
-38 c-11 -20 -37 -59 -57 -86 l-37 -48 -94 -3 c-52 -2 -105 0 -116 2 -21 6
-124 150 -124 175 0 16 96 158 112 164 7 3 60 5 118 4 l105 -2 57 -84z m840 0
l57 -84 -21 -38 c-11 -20 -37 -59 -57 -86 l-37 -48 -94 -3 c-52 -2 -105 0
-116 2 -21 6 -124 150 -124 175 0 16 96 158 112 164 7 3 60 5 118 4 l105 -2
57 -84z m840 0 l57 -84 -21 -38 c-11 -20 -37 -59 -57 -86 l-37 -48 -94 -3
c-52 -2 -105 0 -116 2 -21 6 -124 150 -124 175 0 16 96 158 112 164 7 3 60 5
118 4 l105 -2 57 -84z m835 9 c29 -41 52 -84 52 -95 0 -11 -23 -54 -52 -95
l-52 -75 -95 -3 c-52 -2 -105 0 -116 2 -21 6 -124 150 -124 175 0 16 96 158
112 164 7 3 60 5 118 4 l105 -2 52 -75z m840 0 c29 -41 52 -84 52 -95 0 -11
-23 -54 -52 -95 l-52 -75 -95 -3 c-52 -2 -105 0 -116 2 -21 6 -124 150 -124
175 0 16 96 158 112 164 7 3 60 5 118 4 l105 -2 52 -75z m840 0 c29 -41 52
-84 52 -95 0 -11 -23 -54 -52 -95 l-52 -75 -95 -3 c-52 -2 -105 0 -116 2 -22
6 -124 151 -124 176 0 20 79 138 104 156 16 11 46 14 126 12 l105 -3 52 -75z
m-11327 -205 c28 -41 53 -81 56 -89 7 -17 -88 -161 -115 -176 -28 -15 -204
-13 -223 3 -25 20 -108 150 -108 170 0 10 23 51 50 92 l51 75 119 0 119 0 51
-75z m840 0 c28 -41 53 -81 56 -89 7 -17 -88 -161 -115 -176 -28 -15 -203 -13
-223 3 -28 21 -118 169 -111 181 4 6 28 44 55 84 l49 72 119 0 119 0 51 -75z
m845 -10 l58 -85 -53 -80 c-29 -45 -61 -85 -71 -90 -27 -15 -202 -12 -221 3
-28 21 -118 169 -111 181 4 6 28 44 55 84 l49 72 118 0 119 0 57 -85z m839 -1
l57 -86 -52 -79 c-29 -44 -60 -84 -70 -89 -27 -15 -202 -12 -221 3 -28 21
-118 169 -111 181 4 6 28 44 55 84 l49 72 118 0 118 0 57 -86z m840 0 l57 -86
-52 -79 c-29 -44 -60 -84 -70 -89 -27 -15 -202 -12 -221 3 -8 6 -39 47 -68 90
l-52 79 56 84 56 84 119 0 118 0 57 -86z m840 0 l57 -86 -52 -79 c-29 -44 -60
-84 -70 -89 -10 -6 -61 -10 -114 -10 -110 0 -110 0 -186 116 l-42 64 57 85 56
85 119 0 118 0 57 -86z m836 5 c30 -44 53 -86 53 -93 0 -19 -100 -163 -118
-170 -26 -10 -194 -7 -214 4 -10 5 -42 45 -71 90 l-53 80 57 85 56 85 119 0
118 0 53 -81z m830 6 c28 -41 53 -81 56 -89 7 -17 -88 -161 -115 -176 -25 -13
-186 -13 -210 0 -10 5 -42 45 -71 89 l-52 81 25 42 c14 24 39 62 56 86 l31 42
115 0 114 0 51 -75z m840 0 c28 -41 53 -81 56 -89 7 -17 -88 -161 -115 -176
-28 -15 -204 -13 -223 3 -24 19 -108 150 -108 168 0 9 23 50 51 93 l51 76 119
0 118 0 51 -75z m840 0 c28 -41 53 -81 56 -89 7 -17 -88 -161 -115 -176 -28
-15 -204 -13 -223 3 -25 20 -108 150 -108 170 0 10 23 51 50 92 l51 75 119 0
119 0 51 -75z m846 -10 l57 -85 -34 -56 c-19 -31 -48 -72 -65 -90 l-31 -34
-100 0 c-64 0 -105 4 -115 13 -28 21 -118 169 -111 181 4 6 28 44 55 84 l49
72 119 0 120 0 56 -85z m840 0 l57 -85 -34 -56 c-19 -31 -48 -72 -65 -90 l-31
-34 -100 0 c-64 0 -105 4 -115 13 -28 21 -118 169 -111 181 4 6 28 44 55 84
l49 72 119 0 120 0 56 -85z m838 -1 l57 -86 -52 -79 c-29 -44 -60 -84 -70 -89
-27 -15 -202 -12 -221 3 -28 21 -118 169 -111 181 4 6 28 44 55 84 l49 72 118
0 118 0 57 -86z m840 0 l57 -86 -52 -79 c-29 -44 -60 -84 -70 -89 -27 -15
-202 -12 -221 3 -8 6 -39 47 -68 90 l-52 79 56 84 56 84 119 0 118 0 57 -86z
m840 0 l57 -86 -52 -79 c-29 -44 -60 -84 -70 -89 -27 -15 -202 -12 -221 3 -8
6 -39 47 -68 90 l-52 79 56 84 56 84 119 0 118 0 57 -86z m-11334 -199 c28
-41 53 -82 56 -89 5 -14 -57 -117 -99 -163 -19 -21 -29 -23 -122 -23 -66 0
-107 4 -117 13 -25 20 -108 150 -108 170 0 10 23 51 50 92 l51 75 119 0 119 0
51 -75z m846 -10 l57 -85 -34 -55 c-19 -31 -47 -72 -62 -91 l-28 -34 -103 0
c-66 0 -108 4 -118 13 -28 21 -118 169 -111 181 4 6 28 44 55 84 l49 72 119 0
120 0 56 -85z m838 -1 l58 -87 -59 -86 -58 -86 -95 -3 c-52 -2 -105 0 -116 2
-21 6 -127 155 -127 180 0 6 23 47 52 89 l52 77 118 0 118 0 57 -86z m840 0
l58 -87 -59 -86 -58 -86 -95 -3 c-52 -2 -104 -1 -116 2 -12 3 -45 42 -78 92
l-58 86 56 84 56 84 119 0 118 0 57 -86z m840 0 l57 -86 -52 -79 c-29 -44 -60
-84 -70 -89 -27 -15 -202 -12 -221 3 -8 6 -39 47 -68 90 l-52 79 56 84 56 84
119 0 118 0 57 -86z m840 0 l57 -86 -52 -79 c-29 -44 -60 -84 -70 -89 -27 -15
-202 -12 -221 3 -8 6 -39 47 -68 90 l-52 79 56 84 56 84 119 0 118 0 57 -86z
m836 5 c30 -44 53 -86 53 -93 0 -19 -100 -163 -118 -170 -26 -10 -194 -7 -214
4 -10 5 -42 45 -71 90 l-53 80 57 85 56 85 119 0 118 0 53 -81z m830 6 c28
-41 53 -81 56 -89 5 -14 -87 -163 -110 -178 -19 -13 -211 -9 -228 5 -23 18
-108 149 -108 166 0 8 23 50 51 93 l52 78 118 0 118 0 51 -75z m840 0 c28 -41
53 -82 56 -89 5 -14 -57 -117 -99 -163 -19 -21 -29 -23 -122 -23 -66 0 -107 4
-117 13 -25 20 -108 150 -108 170 0 10 23 51 50 92 l51 75 119 0 119 0 51 -75z
m840 0 c28 -41 53 -82 56 -89 5 -14 -57 -117 -99 -163 -19 -21 -29 -23 -122
-23 -66 0 -107 4 -117 13 -25 20 -108 150 -108 170 0 10 23 51 50 92 l51 75
119 0 119 0 51 -75z m846 -10 l57 -85 -34 -55 c-19 -31 -47 -72 -62 -91 l-28
-34 -103 0 c-66 0 -108 4 -118 13 -28 21 -118 169 -111 181 4 6 28 44 55 84
l49 72 119 0 120 0 56 -85z m840 0 l58 -85 -60 -88 -59 -87 -95 -3 c-52 -2
-105 0 -116 2 -21 6 -127 155 -127 180 0 6 23 47 52 89 l52 77 118 0 119 0 58
-85z m838 -1 l58 -87 -59 -86 -58 -86 -95 -3 c-52 -2 -104 -1 -116 2 -12 3
-45 42 -78 92 l-58 86 56 84 56 84 119 0 118 0 57 -86z m840 0 l57 -86 -52
-79 c-29 -44 -60 -84 -70 -89 -27 -15 -202 -12 -221 3 -8 6 -39 47 -68 90
l-52 79 56 84 56 84 119 0 118 0 57 -86z m-11334 -199 c28 -41 53 -81 56 -89
7 -17 -88 -161 -115 -176 -28 -15 -204 -13 -223 3 -25 20 -108 150 -108 170 0
10 23 51 50 92 l51 75 119 0 119 0 51 -75z m846 -10 l57 -85 -34 -56 c-19 -31
-48 -72 -65 -90 l-31 -34 -100 0 c-64 0 -105 4 -115 13 -28 21 -118 169 -111
181 4 6 28 44 55 84 l49 72 119 0 120 0 56 -85z m840 0 l57 -85 -53 -80 c-29
-45 -61 -85 -71 -90 -27 -15 -202 -12 -221 3 -28 21 -118 169 -111 181 4 6 28
44 55 84 l49 72 119 0 120 0 56 -85z m840 0 l57 -85 -53 -80 c-29 -45 -61 -85
-71 -90 -27 -15 -202 -12 -221 3 -28 21 -118 169 -111 181 4 6 28 44 55 84
l49 72 119 0 120 0 56 -85z m838 -1 l57 -86 -52 -79 c-29 -44 -60 -84 -70 -89
-27 -15 -202 -12 -221 3 -8 6 -39 47 -68 90 l-52 79 56 84 56 84 119 0 118 0
57 -86z m840 0 l57 -86 -52 -79 c-29 -44 -60 -84 -70 -89 -27 -15 -202 -12
-221 3 -8 6 -39 47 -68 90 l-52 79 56 84 56 84 119 0 118 0 57 -86z m840 0
l57 -86 -52 -79 c-29 -44 -60 -84 -70 -89 -27 -15 -202 -12 -221 3 -8 6 -39
47 -68 90 l-52 79 56 84 56 84 119 0 118 0 57 -86z m826 11 c28 -41 53 -82 56
-89 5 -14 -57 -117 -99 -163 -18 -21 -30 -23 -114 -23 -52 0 -102 4 -112 10
-10 5 -42 45 -71 89 l-52 81 25 42 c14 24 39 62 56 86 l31 42 115 0 114 0 51
-75z m840 0 c28 -41 53 -81 56 -89 7 -17 -88 -161 -115 -176 -28 -15 -204 -13
-223 3 -25 20 -108 150 -108 170 0 10 23 51 50 92 l51 75 119 0 119 0 51 -75z
m840 0 c28 -41 53 -81 56 -89 7 -17 -88 -161 -115 -176 -28 -15 -204 -13 -223
3 -25 20 -108 150 -108 170 0 10 23 51 50 92 l51 75 119 0 119 0 51 -75z m846
-10 l57 -85 -34 -56 c-19 -31 -48 -72 -65 -90 l-31 -34 -100 0 c-64 0 -105 4
-115 13 -25 20 -108 150 -108 170 0 10 23 51 50 92 l51 75 119 0 120 0 56 -85z
m840 0 l57 -85 -53 -80 c-29 -45 -61 -85 -71 -90 -27 -15 -202 -12 -221 3 -28
21 -118 169 -111 181 4 6 28 44 55 84 l49 72 119 0 120 0 56 -85z m838 -1 l57
-86 -52 -79 c-29 -44 -60 -84 -70 -89 -27 -15 -202 -12 -221 3 -28 21 -118
169 -111 181 4 6 28 44 55 84 l49 72 118 0 118 0 57 -86z m840 0 l57 -86 -52
-79 c-29 -44 -60 -84 -70 -89 -27 -15 -202 -12 -221 3 -8 6 -39 47 -68 90
l-52 79 56 84 56 84 119 0 118 0 57 -86z m840 0 l57 -86 -52 -79 c-29 -44 -60
-84 -70 -89 -27 -15 -202 -12 -221 3 -8 6 -39 47 -68 90 l-52 79 56 84 56 84
119 0 118 0 57 -86z m-11334 -199 c28 -41 53 -81 56 -89 7 -17 -88 -161 -115
-176 -28 -15 -204 -13 -223 3 -25 20 -108 150 -108 170 0 10 23 51 50 92 l51
75 119 0 119 0 51 -75z m846 -10 l57 -85 -53 -80 c-29 -45 -61 -85 -71 -90
-27 -15 -202 -12 -221 3 -28 21 -118 169 -111 181 4 6 28 44 55 84 l49 72 119
0 120 0 56 -85z m840 0 l57 -85 -53 -80 c-29 -45 -61 -85 -71 -90 -27 -15
-202 -12 -221 3 -28 21 -118 169 -111 181 4 6 28 44 55 84 l49 72 119 0 120 0
56 -85z m839 0 l58 -85 -53 -80 c-29 -45 -61 -85 -71 -90 -27 -15 -202 -12
-221 3 -28 21 -118 169 -111 181 4 6 28 44 55 84 l49 72 117 0 118 0 59 -85z
m839 -1 l57 -86 -52 -79 c-29 -44 -60 -84 -70 -89 -27 -15 -202 -12 -221 3 -8
6 -39 47 -68 90 l-52 79 56 84 56 84 119 0 118 0 57 -86z m840 0 l57 -86 -52
-79 c-29 -44 -60 -84 -70 -89 -27 -15 -202 -12 -221 3 -8 6 -39 47 -67 90 -58
87 -59 75 15 182 l46 65 117 0 118 0 57 -86z m840 0 l57 -86 -52 -79 c-29 -44
-60 -84 -70 -89 -23 -13 -195 -13 -218 0 -10 5 -42 45 -71 89 l-52 81 25 42
c14 24 39 62 56 86 l31 42 119 0 118 0 57 -86z m826 11 c28 -41 53 -81 56 -89
7 -17 -88 -161 -115 -176 -22 -11 -200 -14 -217 -2 -22 13 -114 155 -114 174
0 11 23 52 50 93 l51 75 119 0 119 0 51 -75z m840 0 c28 -41 53 -81 56 -89 7
-17 -88 -161 -115 -176 -28 -15 -204 -13 -223 3 -25 20 -108 150 -108 170 0
10 23 51 50 92 l51 75 119 0 119 0 51 -75z m846 -10 l57 -85 -34 -56 c-19 -31
-48 -72 -65 -90 l-31 -34 -100 0 c-64 0 -105 4 -115 13 -25 20 -108 150 -108
170 0 10 23 51 50 92 l51 75 119 0 120 0 56 -85z m840 0 l57 -85 -53 -80 c-29
-45 -61 -85 -71 -90 -27 -15 -202 -12 -221 3 -28 21 -118 169 -111 181 4 6 28
44 55 84 l49 72 119 0 120 0 56 -85z m840 0 l57 -85 -53 -80 c-29 -45 -61 -85
-71 -90 -27 -15 -202 -12 -221 3 -28 21 -118 169 -111 181 4 6 28 44 55 84
l49 72 119 0 120 0 56 -85z m840 0 l57 -85 -53 -80 c-29 -45 -61 -85 -71 -90
-27 -15 -202 -12 -221 3 -28 21 -118 169 -111 181 4 6 28 44 55 84 l49 72 119
0 120 0 56 -85z m838 -1 l57 -86 -52 -79 c-29 -44 -60 -84 -70 -89 -27 -15
-202 -12 -221 3 -8 6 -39 47 -68 90 l-52 79 56 84 56 84 119 0 118 0 57 -86z
m-11328 -209 l56 -84 -25 -43 c-14 -24 -39 -62 -56 -85 l-31 -43 -119 0 -118
0 -52 78 c-28 43 -51 86 -51 96 0 9 23 50 50 91 l51 75 119 0 120 0 56 -85z
m840 0 l57 -85 -57 -85 -56 -85 -119 0 -118 0 -53 81 c-30 44 -53 86 -53 93 0
6 23 47 52 89 l52 77 119 0 120 0 56 -85z m840 0 l57 -85 -57 -85 -56 -85
-119 0 -118 0 -53 81 c-30 44 -53 86 -53 93 0 6 23 47 52 89 l52 77 119 0 120
0 56 -85z m840 0 l57 -85 -57 -85 -56 -85 -119 0 -118 0 -53 81 c-30 44 -53
86 -53 93 0 6 23 47 52 89 l52 77 119 0 120 0 56 -85z m838 -1 l58 -86 -56
-84 -56 -84 -119 0 -118 0 -57 86 -58 86 56 84 56 84 119 0 118 0 57 -86z
m840 0 l58 -86 -56 -84 -56 -84 -119 0 -118 0 -57 86 -58 86 56 84 56 84 119
0 118 0 57 -86z m840 0 l58 -86 -56 -84 -56 -84 -119 0 -118 0 -57 86 -57 85
25 42 c13 23 38 61 55 85 l31 42 119 0 118 0 57 -86z m831 4 c30 -46 55 -87
55 -93 -1 -5 -24 -44 -53 -85 l-52 -75 -117 -3 -117 -3 -57 85 -56 85 25 43
c14 24 39 62 56 86 l31 42 115 0 115 0 55 -82z m840 0 c30 -46 55 -87 55 -93
-1 -5 -24 -44 -53 -85 l-52 -75 -120 -3 -120 -3 -53 78 c-28 43 -52 86 -52 96
0 10 23 51 50 92 l51 75 119 0 120 0 55 -82z m840 0 c30 -46 55 -87 55 -93 -1
-5 -24 -44 -53 -85 l-52 -75 -121 -3 -121 -3 -52 79 c-28 43 -51 86 -51 96 0
9 23 50 50 91 l51 75 119 0 120 0 55 -82z m841 -3 l57 -85 -57 -85 -56 -85
-119 0 -118 0 -52 78 c-28 43 -51 86 -51 96 0 9 23 50 50 91 l51 75 119 0 120
0 56 -85z m840 0 l57 -85 -57 -85 -56 -85 -119 0 -118 0 -53 81 c-30 44 -53
86 -53 93 0 6 23 47 52 89 l52 77 119 0 120 0 56 -85z m840 0 l57 -85 -57 -85
-56 -85 -119 0 -118 0 -53 81 c-30 44 -53 86 -53 93 0 6 23 47 52 89 l52 77
119 0 120 0 56 -85z m840 0 l57 -85 -56 -85 -57 -85 -119 0 -118 0 -53 81
c-30 44 -53 86 -53 93 0 6 23 47 52 89 l52 77 118 0 119 0 58 -85z m838 -1
l58 -86 -56 -84 -56 -84 -119 0 -118 0 -57 86 -58 86 56 84 56 84 119 0 118 0
57 -86z m-11395 -124 c10 -5 41 -45 70 -89 59 -90 60 -78 -14 -185 -25 -35
-52 -67 -61 -70 -20 -8 -172 -8 -201 0 -22 6 -126 153 -126 178 0 26 103 165
125 169 45 9 190 7 207 -3z m840 0 c10 -5 42 -45 71 -90 l53 -80 -53 -80 c-29
-45 -61 -85 -71 -90 -19 -11 -171 -13 -206 -4 -22 6 -126 153 -126 178 0 26
103 165 125 169 45 9 190 7 207 -3z m840 0 c10 -5 42 -45 71 -90 l53 -80 -53
-80 c-29 -45 -61 -85 -71 -90 -19 -11 -171 -13 -206 -4 -22 6 -126 153 -126
178 0 21 102 164 120 169 34 9 194 7 212 -3z m833 1 c14 -5 47 -44 77 -90 l54
-81 -53 -80 c-29 -45 -61 -85 -71 -90 -19 -11 -171 -13 -206 -4 -22 6 -126
153 -126 178 0 21 102 164 120 169 33 9 181 7 205 -2z m850 -3 c8 -7 39 -48
68 -91 l52 -78 -53 -80 c-29 -44 -60 -84 -70 -89 -19 -11 -171 -13 -206 -4
-12 3 -45 41 -78 91 l-56 85 52 80 c29 44 62 84 73 88 34 14 200 12 218 -2z
m840 0 c8 -7 39 -48 68 -91 l52 -78 -53 -80 c-29 -44 -60 -84 -70 -89 -19 -11
-171 -13 -206 -4 -12 3 -45 41 -78 91 l-56 85 52 80 c29 44 62 84 73 88 34 14
200 12 218 -2z m825 6 c12 -3 45 -41 78 -91 l56 -85 -52 -79 c-29 -44 -60 -84
-70 -89 -19 -11 -171 -13 -206 -4 -12 3 -44 41 -77 90 -64 95 -64 83 6 187 22
32 49 62 61 67 25 10 171 13 204 4z m842 -4 c17 -9 121 -158 121 -174 0 -15
-101 -156 -119 -166 -21 -10 -171 -14 -206 -4 -22 6 -125 154 -125 179 0 29
98 163 122 168 45 9 190 7 207 -3z m840 0 c17 -9 121 -158 121 -174 0 -15
-101 -156 -119 -166 -21 -11 -171 -14 -208 -4 -24 7 -123 149 -123 178 0 29
97 164 122 169 45 9 190 7 207 -3z m840 0 c10 -5 42 -45 71 -89 l52 -81 -33
-56 c-19 -32 -48 -72 -65 -90 -31 -34 -32 -34 -120 -34 -49 0 -99 3 -111 6
-24 7 -123 149 -123 178 0 29 97 164 122 169 45 9 190 7 207 -3z m840 0 c10
-5 42 -45 71 -90 l53 -80 -53 -80 c-29 -45 -61 -85 -71 -90 -19 -11 -171 -13
-206 -4 -22 6 -126 153 -126 178 0 21 102 164 120 169 34 9 194 7 212 -3z
m840 0 c10 -5 42 -45 71 -90 l53 -80 -53 -80 c-29 -45 -61 -85 -71 -90 -19
-11 -171 -13 -206 -4 -22 6 -126 153 -126 178 0 21 102 164 120 169 34 9 194
7 212 -3z m840 0 c10 -5 42 -45 71 -90 l53 -80 -53 -80 c-29 -45 -61 -85 -71
-90 -19 -11 -171 -13 -206 -4 -22 6 -126 153 -126 178 0 26 103 165 125 169
45 9 190 7 207 -3z m843 -2 c8 -7 39 -48 68 -91 l52 -78 -53 -80 c-29 -44 -60
-84 -70 -89 -19 -11 -171 -13 -206 -4 -12 3 -45 41 -78 91 l-56 85 52 80 c29
44 62 84 73 88 34 14 200 12 218 -2z m-11266 -293 l57 -85 -34 -56 c-19 -31
-48 -72 -65 -90 -31 -34 -32 -34 -120 -34 -49 0 -98 3 -110 6 -23 6 -124 150
-124 177 0 10 23 51 50 92 l51 75 119 0 120 0 56 -85z m840 0 l57 -85 -53 -80
c-29 -45 -61 -85 -71 -90 -19 -11 -171 -13 -206 -4 -22 6 -126 153 -126 178 0
6 23 47 52 89 l52 77 119 0 120 0 56 -85z m840 0 l57 -85 -53 -80 c-29 -45
-61 -85 -71 -90 -19 -11 -171 -13 -206 -4 -22 6 -126 153 -126 178 0 6 23 47
52 89 l52 77 119 0 120 0 56 -85z m840 0 l57 -85 -53 -80 c-29 -45 -61 -85
-71 -90 -19 -11 -171 -13 -206 -4 -22 6 -126 153 -126 178 0 6 23 47 52 89
l52 77 119 0 120 0 56 -85z m840 0 l57 -85 -53 -80 c-29 -45 -61 -85 -71 -90
-19 -11 -171 -13 -206 -4 -22 6 -126 153 -126 178 0 6 23 47 52 89 l52 77 119
0 120 0 56 -85z m838 -1 l57 -86 -52 -79 c-29 -44 -60 -84 -70 -89 -19 -11
-171 -13 -206 -4 -12 3 -45 41 -78 91 l-56 84 25 42 c13 23 38 61 55 85 l31
42 119 0 118 0 57 -86z m840 0 l57 -86 -52 -79 c-29 -44 -60 -84 -70 -89 -19
-11 -171 -13 -206 -4 -12 3 -45 41 -78 91 l-56 84 25 42 c13 23 38 61 55 85
l31 42 119 0 118 0 57 -86z m826 11 c28 -41 53 -81 56 -89 7 -17 -88 -161
-115 -176 -21 -11 -161 -14 -198 -4 -12 3 -45 41 -78 91 l-56 84 25 42 c13 23
38 61 55 85 l31 42 115 0 114 0 51 -75z m840 0 c28 -41 53 -81 56 -89 7 -17
-88 -161 -115 -176 -21 -10 -171 -14 -206 -4 -22 6 -125 154 -125 179 0 9 23
49 50 90 l51 75 119 0 119 0 51 -75z m846 -10 l57 -85 -53 -80 c-29 -45 -61
-85 -71 -90 -19 -11 -170 -13 -205 -4 -23 6 -124 150 -124 177 0 10 23 51 50
92 l51 75 119 0 120 0 56 -85z m840 0 l57 -85 -53 -80 c-29 -45 -61 -85 -71
-90 -19 -11 -171 -13 -206 -4 -22 6 -126 153 -126 178 0 6 23 47 52 89 l52 77
119 0 120 0 56 -85z m840 0 l57 -85 -53 -80 c-29 -45 -61 -85 -71 -90 -19 -11
-171 -13 -206 -4 -22 6 -126 153 -126 178 0 6 23 47 52 89 l52 77 119 0 120 0
56 -85z m840 0 l57 -85 -53 -80 c-29 -45 -61 -85 -71 -90 -19 -11 -171 -13
-206 -4 -22 6 -126 153 -126 178 0 6 23 47 52 89 l52 77 119 0 120 0 56 -85z
m840 0 l57 -85 -53 -80 c-29 -45 -61 -85 -71 -90 -19 -11 -171 -13 -206 -4
-22 6 -126 153 -126 178 0 6 23 47 52 89 l52 77 119 0 120 0 56 -85z m838 -1
l57 -86 -52 -79 c-29 -44 -60 -84 -70 -89 -19 -11 -171 -13 -206 -4 -12 3 -45
41 -78 91 l-56 84 25 42 c13 23 38 61 55 85 l31 42 119 0 118 0 57 -86z
m-11328 -209 l57 -85 -57 -85 -56 -85 -119 0 -118 0 -53 81 c-30 44 -53 86
-53 93 0 6 23 47 52 89 l52 77 119 0 120 0 56 -85z m840 0 l57 -85 -57 -85
-56 -85 -119 0 -118 0 -53 81 c-30 44 -53 86 -53 93 0 6 23 47 52 89 l52 77
119 0 120 0 56 -85z m840 0 l57 -85 -57 -85 -56 -85 -119 0 -118 0 -53 81
c-30 44 -53 86 -53 93 0 6 23 47 52 89 l52 77 119 0 120 0 56 -85z m840 0 l57
-85 -57 -85 -56 -85 -119 0 -118 0 -53 81 c-30 44 -53 86 -53 93 0 6 23 47 52
89 l52 77 119 0 120 0 56 -85z m840 0 l57 -85 -57 -85 -56 -85 -119 0 -118 0
-57 86 -57 85 25 42 c13 23 38 61 55 85 l31 42 120 0 120 0 56 -85z m838 -1
l58 -86 -56 -84 -56 -84 -119 0 -118 0 -57 86 -57 85 25 42 c13 23 38 61 55
85 l31 42 119 0 118 0 57 -86z m840 0 l58 -86 -56 -84 -56 -84 -119 0 -118 0
-57 86 -57 85 25 42 c13 23 38 61 55 85 l31 42 119 0 118 0 57 -86z m831 4
c30 -46 55 -87 55 -93 -1 -5 -24 -44 -53 -85 l-52 -75 -120 -2 -120 -3 -52 80
c-29 44 -53 87 -53 95 0 9 23 49 50 90 l51 75 119 0 120 0 55 -82z m841 -2
c63 -96 64 -85 -13 -193 l-44 -63 -117 0 -117 0 -52 80 c-29 44 -53 87 -53 95
0 9 23 49 50 90 l51 75 119 0 120 0 56 -84z m840 -1 l57 -85 -57 -85 -56 -85
-118 0 -117 0 -53 78 c-28 42 -52 85 -52 95 0 10 23 51 50 92 l51 75 119 0
120 0 56 -85z m840 0 l57 -85 -57 -85 -56 -85 -119 0 -118 0 -53 81 c-30 44
-53 86 -53 93 0 6 23 47 52 89 l52 77 119 0 120 0 56 -85z m840 0 l57 -85 -57
-85 -56 -85 -119 0 -118 0 -53 81 c-30 44 -53 86 -53 93 0 6 23 47 52 89 l52
77 119 0 120 0 56 -85z m840 0 l57 -85 -57 -85 -56 -85 -119 0 -118 0 -53 81
c-30 44 -53 86 -53 93 0 6 23 47 52 89 l52 77 119 0 120 0 56 -85z m840 0 l57
-85 -57 -85 -56 -85 -119 0 -118 0 -53 81 c-30 44 -53 86 -53 93 0 6 23 47 52
89 l52 77 119 0 120 0 56 -85z m-11397 -125 c10 -5 42 -45 71 -90 l53 -80 -53
-80 c-29 -45 -61 -85 -71 -90 -19 -11 -171 -13 -204 -4 -22 6 -125 154 -125
179 0 24 97 163 117 168 34 9 194 7 212 -3z m840 0 c10 -5 42 -45 71 -90 l53
-80 -53 -80 c-29 -45 -61 -85 -71 -90 -19 -11 -171 -13 -206 -4 -22 6 -126
153 -126 178 0 21 102 164 120 169 34 9 194 7 212 -3z m840 0 c10 -5 42 -45
71 -90 l53 -80 -53 -80 c-29 -45 -61 -85 -71 -90 -19 -11 -171 -13 -206 -4
-22 6 -126 153 -126 178 0 21 102 164 120 169 34 9 194 7 212 -3z m840 0 c10
-5 42 -45 71 -90 l53 -80 -53 -80 c-29 -45 -61 -85 -71 -90 -19 -11 -171 -13
-206 -4 -22 6 -126 153 -126 178 0 21 102 164 120 169 34 9 194 7 212 -3z
m840 0 c10 -5 42 -45 71 -90 l53 -80 -53 -80 c-29 -45 -61 -85 -71 -90 -19
-11 -171 -13 -206 -4 -22 6 -126 153 -126 178 0 21 102 164 120 169 34 9 194
7 212 -3z m843 -2 c8 -7 39 -48 68 -91 l52 -78 -53 -80 c-29 -44 -60 -84 -70
-89 -27 -15 -202 -12 -221 3 -8 6 -39 47 -67 90 -58 87 -59 76 11 180 22 32
49 62 61 67 35 14 201 12 219 -2z m840 0 c8 -7 39 -48 68 -91 l52 -78 -53 -80
c-29 -44 -60 -84 -70 -89 -27 -15 -202 -12 -221 3 -8 6 -39 47 -67 90 -58 87
-59 76 11 180 22 32 49 62 61 67 35 14 201 12 219 -2z m827 2 c17 -9 121 -158
121 -174 0 -15 -101 -156 -119 -166 -28 -15 -194 -13 -213 3 -16 12 -118 161
-118 172 0 17 105 157 123 165 30 12 184 12 206 0z m840 0 c17 -9 121 -158
121 -174 0 -15 -101 -156 -119 -166 -21 -10 -171 -14 -206 -4 -22 6 -125 154
-125 179 0 24 97 163 117 168 34 9 194 7 212 -3z m840 0 c10 -5 42 -45 71 -90
l53 -80 -53 -80 c-29 -45 -61 -85 -71 -90 -19 -11 -170 -13 -205 -4 -23 6
-124 150 -124 177 0 25 96 165 117 170 34 9 194 7 212 -3z m840 0 c10 -5 42
-45 71 -90 l53 -80 -53 -80 c-29 -45 -61 -85 -71 -90 -19 -11 -171 -13 -206
-4 -22 6 -126 153 -126 178 0 21 102 164 120 169 34 9 194 7 212 -3z m840 0
c10 -5 42 -45 71 -90 l53 -80 -53 -80 c-29 -45 -61 -85 -71 -90 -19 -11 -171
-13 -206 -4 -22 6 -126 153 -126 178 0 21 102 164 120 169 34 9 194 7 212 -3z
m840 0 c10 -5 42 -45 71 -90 l53 -80 -53 -80 c-29 -45 -61 -85 -71 -90 -19
-11 -171 -13 -206 -4 -22 6 -126 153 -126 178 0 21 102 164 120 169 34 9 194
7 212 -3z m840 0 c10 -5 42 -45 71 -90 l53 -80 -53 -80 c-29 -45 -61 -85 -71
-90 -27 -15 -202 -12 -221 3 -28 21 -118 169 -111 181 39 66 106 155 120 159
34 9 194 7 212 -3z m840 0 c10 -5 42 -45 71 -90 l53 -80 -53 -80 c-29 -45 -61
-85 -71 -90 -27 -15 -202 -12 -221 3 -8 6 -39 47 -67 90 -58 87 -59 76 11 180
22 32 49 62 61 67 30 12 194 12 216 0z m-11265 -292 l59 -88 -56 -85 -57 -85
-118 0 -117 1 -54 80 c-30 45 -54 86 -54 93 0 17 99 163 115 169 7 3 60 5 118
4 l105 -2 59 -87z m840 0 l59 -88 -56 -85 -57 -85 -118 0 -117 0 -54 80 c-30
44 -54 86 -54 93 0 17 99 164 115 170 7 3 60 5 118 4 l105 -2 59 -87z m840 0
l59 -88 -56 -85 -57 -85 -119 0 -118 0 -53 81 c-30 44 -53 86 -53 93 0 16 99
163 115 169 7 3 60 5 118 4 l105 -2 59 -87z m840 0 l59 -88 -56 -85 -57 -85
-119 0 -118 0 -53 81 c-30 44 -53 86 -53 93 0 16 99 163 115 169 7 3 60 5 118
4 l105 -2 59 -87z m840 0 l59 -88 -56 -85 -57 -85 -119 0 -118 0 -45 68 c-75
113 -74 100 -19 185 27 41 58 80 68 86 10 6 61 10 123 8 l105 -2 59 -87z m840
0 l59 -88 -56 -85 -57 -85 -119 0 -118 0 -57 86 -57 86 33 55 c18 31 47 71 65
90 l31 34 109 -3 108 -3 59 -87z m778 80 c8 -7 39 -48 68 -91 l52 -79 -56 -84
-56 -84 -119 0 -118 0 -57 86 -57 86 33 55 c18 31 47 71 64 89 l31 34 100 0
c64 0 105 -4 115 -12z m891 -77 c31 -47 57 -90 57 -95 -1 -6 -24 -45 -53 -86
l-52 -75 -120 0 -120 0 -52 75 c-29 41 -52 83 -53 93 0 21 93 162 112 170 7 3
60 5 118 4 l105 -2 58 -84z m841 -3 l59 -88 -56 -85 -57 -85 -118 0 -117 0
-52 80 c-29 44 -53 87 -53 95 0 20 94 161 112 168 7 3 60 5 118 4 l105 -2 59
-87z m840 0 l59 -88 -56 -85 -57 -85 -118 0 -117 0 -52 80 c-29 44 -53 87 -53
95 0 20 94 161 112 168 7 3 60 5 118 4 l105 -2 59 -87z m840 0 l59 -88 -56
-85 -57 -85 -119 0 -118 0 -53 81 c-30 44 -53 86 -53 93 0 16 99 163 115 169
7 3 60 5 118 4 l105 -2 59 -87z m840 0 l59 -88 -56 -85 -57 -85 -119 0 -118 0
-53 81 c-30 44 -53 86 -53 93 0 16 99 163 115 169 7 3 60 5 118 4 l105 -2 59
-87z m840 0 l59 -88 -56 -85 -57 -85 -119 0 -118 0 -45 68 c-75 113 -74 100
-19 185 27 41 58 80 68 86 10 6 61 10 123 8 l105 -2 59 -87z m840 0 l59 -88
-56 -85 -57 -85 -119 0 -118 0 -45 68 c-75 113 -74 100 -19 185 27 41 58 80
68 86 10 6 61 10 123 8 l105 -2 59 -87z m-11330 -210 l59 -88 -56 -85 -57 -85
-118 0 -117 0 -52 80 c-29 44 -53 87 -53 95 0 24 97 163 117 168 10 3 63 4
118 4 l100 -2 59 -87z m775 82 c10 -5 42 -45 71 -90 l53 -80 -57 -85 -56 -85
-118 0 -117 0 -54 80 c-30 44 -54 86 -54 93 0 17 99 164 115 170 23 10 199 7
217 -3z m840 0 c10 -5 42 -45 71 -90 l53 -80 -57 -85 -56 -85 -119 0 -118 0
-53 81 c-30 44 -53 86 -53 93 0 17 99 163 115 169 23 10 199 7 217 -3z m840 0
c10 -5 42 -45 71 -90 l53 -80 -57 -85 -56 -85 -119 0 -118 0 -45 68 c-75 113
-74 100 -19 185 27 41 58 80 68 86 23 13 198 14 222 1z m840 0 c10 -5 42 -45
71 -90 l53 -80 -57 -85 -56 -85 -119 0 -118 0 -45 68 c-75 113 -74 100 -19
185 27 41 58 80 68 86 23 13 198 14 222 1z m840 0 c10 -5 42 -45 71 -90 l53
-80 -57 -85 -56 -85 -119 0 -118 0 -45 68 c-75 113 -74 100 -19 185 27 41 58
80 68 86 23 13 198 14 222 1z m840 0 c10 -5 42 -45 71 -90 l53 -80 -57 -85
-56 -85 -119 0 -118 0 -57 86 -57 86 33 55 c18 31 47 71 64 89 l31 34 97 0
c54 0 105 -4 115 -10z m873 -45 c21 -27 48 -68 60 -91 l21 -41 -54 -79 -54
-79 -116 -3 -116 -3 -56 86 c-31 46 -57 87 -57 90 0 13 101 155 117 164 10 6
62 10 118 8 l99 -2 38 -50z m862 -37 l59 -88 -56 -85 -57 -85 -118 0 -117 0
-52 80 c-29 44 -53 87 -53 95 0 24 97 163 117 168 10 3 63 4 118 4 l100 -2 59
-87z m840 0 l59 -88 -56 -85 -57 -85 -118 0 -117 0 -52 80 c-29 44 -53 87 -53
95 0 24 97 163 117 168 10 3 63 4 118 4 l100 -2 59 -87z m840 0 l59 -88 -56
-85 -57 -85 -118 0 -117 0 -40 62 c-22 33 -48 73 -57 88 -17 26 -17 27 37 107
30 45 60 83 67 86 7 3 60 5 118 4 l105 -2 59 -87z m775 82 c10 -5 42 -45 71
-90 l53 -80 -57 -85 -56 -85 -118 0 -117 0 -54 80 c-30 44 -54 86 -54 93 0 17
99 164 115 170 23 10 199 7 217 -3z m840 0 c10 -5 42 -45 71 -90 l53 -80 -57
-85 -56 -85 -119 0 -118 0 -53 81 c-30 44 -53 86 -53 93 0 17 99 163 115 169
23 10 199 7 217 -3z m840 0 c10 -5 42 -45 71 -90 l53 -80 -57 -85 -56 -85
-119 0 -118 0 -45 68 c-75 113 -74 100 -19 185 27 41 58 80 68 86 23 13 198
14 222 1z m840 0 c10 -5 42 -45 71 -90 l53 -80 -57 -85 -56 -85 -119 0 -118 0
-45 68 c-75 113 -74 100 -19 185 27 41 58 80 68 86 23 13 198 14 222 1z
m-11265 -292 l59 -88 -56 -85 -57 -85 -118 0 -117 0 -52 80 c-29 44 -53 87
-53 95 0 24 97 163 117 168 10 3 63 4 118 4 l100 -2 59 -87z m775 82 c10 -5
42 -45 71 -90 l53 -80 -57 -85 -56 -85 -118 0 -117 0 -54 80 c-30 44 -54 86
-54 93 0 22 101 165 120 170 34 9 194 7 212 -3z m905 -82 l59 -88 -56 -85 -57
-85 -119 0 -118 0 -53 81 c-30 44 -53 86 -53 93 0 16 99 163 115 169 7 3 60 5
118 4 l105 -2 59 -87z m775 82 c10 -5 42 -45 71 -90 l53 -80 -57 -85 -56 -85
-119 0 -118 0 -45 68 c-75 113 -74 100 -19 185 27 41 58 80 68 86 23 13 198
14 222 1z m840 0 c10 -5 42 -45 71 -90 l53 -80 -57 -85 -56 -85 -119 0 -118 0
-45 68 c-75 113 -74 100 -19 185 27 41 58 80 68 86 23 13 198 14 222 1z m840
0 c10 -5 42 -45 71 -90 l53 -80 -57 -85 -56 -85 -119 0 -118 0 -57 86 -57 86
33 55 c18 31 47 71 64 89 l31 34 97 0 c54 0 105 -4 115 -10z m843 -2 c8 -7 39
-48 67 -90 l51 -78 -56 -85 -57 -85 -117 0 -117 0 -56 85 c-32 47 -57 87 -57
90 0 13 101 155 117 164 26 15 206 14 225 -1z m892 -80 l59 -88 -57 -85 -57
-86 -117 3 -117 3 -52 75 c-29 41 -52 83 -53 93 0 25 96 164 117 170 10 3 63
4 118 4 l100 -2 59 -87z m840 0 l59 -88 -56 -85 -57 -85 -118 0 -117 0 -52 80
c-29 44 -53 87 -53 95 0 24 97 163 117 168 10 3 63 4 118 4 l100 -2 59 -87z
m840 0 l59 -88 -56 -85 -57 -85 -118 0 -117 0 -40 62 c-22 33 -48 73 -57 88
-17 26 -17 27 37 107 30 45 62 84 72 86 10 3 63 4 118 4 l100 -2 59 -87z m840
0 l59 -88 -56 -85 -57 -85 -118 0 -117 0 -54 80 c-30 44 -54 86 -54 93 0 22
101 165 120 170 10 3 63 4 118 4 l100 -2 59 -87z m775 82 c10 -5 42 -45 71
-90 l53 -80 -57 -85 -56 -85 -119 0 -118 0 -53 81 c-30 44 -53 86 -53 93 0 21
102 164 120 169 34 9 194 7 212 -3z m840 0 c10 -5 42 -45 71 -90 l53 -80 -57
-85 -56 -85 -119 0 -118 0 -45 68 c-75 113 -74 100 -19 185 27 41 58 80 68 86
23 13 198 14 222 1z m840 0 c10 -5 42 -45 71 -90 l53 -80 -57 -85 -56 -85
-119 0 -118 0 -45 68 c-75 113 -74 100 -19 185 27 41 58 80 68 86 23 13 198
14 222 1z m-11265 -292 l59 -88 -57 -85 -57 -86 -117 3 -117 3 -52 75 c-29 41
-52 83 -53 93 0 21 93 162 112 170 7 3 60 5 118 4 l105 -2 59 -87z m840 0 l59
-88 -56 -85 -57 -85 -118 0 -117 0 -40 62 c-22 33 -48 73 -57 88 -17 26 -17
27 37 107 30 45 60 83 67 86 7 3 60 5 118 4 l105 -2 59 -87z m840 0 l59 -88
-56 -85 -57 -85 -118 0 -117 0 -54 80 c-30 44 -54 86 -54 93 0 17 99 164 115
170 7 3 60 5 118 4 l105 -2 59 -87z m840 0 l59 -88 -56 -85 -57 -85 -119 0
-118 0 -45 68 c-75 113 -74 100 -19 185 27 41 58 80 68 86 10 6 61 10 123 8
l105 -2 59 -87z m840 0 l59 -88 -56 -85 -57 -85 -119 0 -118 0 -45 68 c-75
113 -74 100 -19 185 27 41 58 80 68 86 10 6 61 10 123 8 l105 -2 59 -87z m840
0 l59 -88 -56 -85 -57 -85 -119 0 -118 0 -45 68 c-75 113 -74 100 -19 185 27
41 58 80 68 86 10 6 61 10 123 8 l105 -2 59 -87z m840 0 l59 -88 -56 -85 -57
-85 -119 0 -118 0 -45 68 c-75 113 -74 100 -19 185 27 41 58 80 68 86 10 6 61
10 123 8 l105 -2 59 -87z m808 37 c21 -27 48 -68 60 -91 l21 -41 -54 -79 -54
-79 -116 -3 -116 -3 -56 86 c-31 46 -57 87 -57 90 0 13 101 155 117 164 10 6
62 10 118 8 l99 -2 38 -50z m862 -37 l59 -88 -57 -85 -57 -86 -117 3 -117 3
-52 75 c-29 41 -52 83 -53 93 0 21 93 162 112 170 7 3 60 5 118 4 l105 -2 59
-87z m840 0 l59 -88 -57 -85 -57 -86 -117 3 -117 3 -52 75 c-29 41 -52 83 -53
93 0 21 93 162 112 170 7 3 60 5 118 4 l105 -2 59 -87z m840 0 l59 -88 -56
-85 -57 -85 -118 0 -117 0 -52 80 c-29 44 -53 87 -53 95 0 20 94 161 112 168
7 3 60 5 118 4 l105 -2 59 -87z m840 0 l59 -88 -56 -85 -57 -85 -118 0 -117 0
-54 80 c-30 44 -54 86 -54 93 0 17 99 164 115 170 7 3 60 5 118 4 l105 -2 59
-87z m840 0 l59 -88 -56 -85 -57 -85 -119 0 -118 0 -45 68 c-75 113 -74 100
-19 185 27 41 58 80 68 86 10 6 61 10 123 8 l105 -2 59 -87z m840 0 l59 -88
-56 -85 -57 -85 -119 0 -118 0 -45 68 c-75 113 -74 100 -19 185 27 41 58 80
68 86 10 6 61 10 123 8 l105 -2 59 -87z m840 0 l59 -88 -56 -85 -57 -85 -119
0 -118 0 -45 68 c-75 113 -74 100 -19 185 27 41 58 80 68 86 10 6 61 10 123 8
l105 -2 59 -87z m-11330 -210 l59 -88 -57 -85 -57 -86 -116 3 -117 3 -42 60
c-82 116 -81 100 -19 192 30 45 60 83 67 86 7 3 60 5 118 4 l105 -2 59 -87z
m840 0 l59 -88 -57 -85 -57 -86 -116 3 -117 3 -42 60 c-82 116 -81 100 -19
192 30 45 60 83 67 86 7 3 60 5 118 4 l105 -2 59 -87z m840 0 l59 -88 -56 -85
-57 -85 -118 0 -117 0 -52 78 c-28 42 -54 82 -57 88 -7 14 85 158 111 173 10
6 61 10 123 8 l105 -2 59 -87z m840 0 l59 -88 -56 -85 -57 -85 -119 0 -118 0
-45 68 c-75 113 -74 100 -19 185 27 41 58 80 68 86 10 6 61 10 123 8 l105 -2
59 -87z m840 0 l59 -88 -56 -85 -57 -85 -119 0 -118 0 -45 68 c-75 113 -74
100 -19 185 27 41 58 80 68 86 10 6 61 10 123 8 l105 -2 59 -87z m840 0 l59
-88 -56 -85 -57 -85 -119 0 -118 0 -45 68 c-75 113 -74 100 -19 185 27 41 58
80 68 86 10 6 61 10 123 8 l105 -2 59 -87z m839 1 l59 -86 -58 -87 -57 -86
-117 0 -117 0 -56 85 c-32 47 -57 87 -57 90 0 13 101 155 117 164 10 6 64 10
123 8 l105 -2 58 -86z m784 69 c42 -47 104 -150 99 -164 -3 -7 -28 -48 -56
-89 l-51 -76 -117 3 -117 3 -52 75 c-29 41 -52 83 -53 93 0 21 93 163 112 170
7 3 58 6 114 6 92 1 102 -1 121 -21z m887 -70 l59 -88 -57 -85 -57 -86 -117 3
-117 3 -52 75 c-29 41 -52 83 -53 93 0 21 93 162 112 170 7 3 60 5 118 4 l105
-2 59 -87z m840 0 l59 -88 -57 -85 -57 -86 -117 3 -117 3 -52 75 c-29 41 -52
83 -53 93 0 21 93 162 112 170 7 3 60 5 118 4 l105 -2 59 -87z m840 0 l59 -88
-57 -85 -57 -86 -116 3 -117 3 -42 60 c-82 116 -81 100 -19 192 30 45 60 83
67 86 7 3 60 5 118 4 l105 -2 59 -87z m840 0 l59 -88 -57 -85 -57 -86 -116 3
-117 3 -42 60 c-82 117 -81 102 -25 188 27 41 58 80 68 86 10 6 61 10 123 8
l105 -2 59 -87z m840 0 l59 -88 -56 -85 -57 -85 -119 0 -118 0 -45 68 c-75
113 -74 100 -19 185 27 41 58 80 68 86 10 6 61 10 123 8 l105 -2 59 -87z m840
0 l59 -88 -56 -85 -57 -85 -119 0 -118 0 -45 68 c-75 113 -74 100 -19 185 27
41 58 80 68 86 10 6 61 10 123 8 l105 -2 59 -87z m-11330 -210 l59 -88 -57
-85 -57 -86 -117 3 -117 3 -52 75 c-29 41 -52 83 -53 93 0 21 93 162 112 170
7 3 60 5 118 4 l105 -2 59 -87z m840 0 l59 -88 -57 -85 -57 -86 -116 3 -117 3
-42 60 c-82 116 -81 100 -19 192 30 45 60 83 67 86 7 3 60 5 118 4 l105 -2 59
-87z m840 0 l59 -88 -56 -85 -57 -85 -118 0 -117 0 -52 78 c-28 42 -54 82 -57
88 -7 14 85 158 111 173 10 6 61 10 123 8 l105 -2 59 -87z m840 0 l59 -88 -56
-85 -57 -85 -118 0 -117 0 -52 78 c-28 42 -54 82 -57 88 -7 14 85 158 111 173
10 6 61 10 123 8 l105 -2 59 -87z m840 0 l59 -88 -56 -85 -57 -85 -119 0 -118
0 -45 68 c-75 113 -74 100 -19 185 27 41 58 80 68 86 10 6 61 10 123 8 l105
-2 59 -87z m839 1 l59 -86 -58 -87 -57 -86 -117 0 -117 0 -45 68 c-75 113 -74
100 -19 185 27 41 58 80 68 86 10 6 61 10 123 8 l105 -2 58 -86z m840 0 l59
-86 -58 -87 -57 -86 -117 0 -117 0 -56 85 c-32 47 -57 87 -57 90 0 13 101 155
117 164 10 6 64 10 123 8 l105 -2 58 -86z m784 69 c42 -47 104 -150 99 -164
-3 -7 -28 -48 -56 -89 l-51 -75 -113 0 -113 0 -56 85 c-32 47 -57 87 -57 90 0
13 101 155 117 164 10 6 61 11 114 11 87 0 97 -2 116 -22z m850 -12 c15 -19
43 -60 62 -91 l34 -55 -57 -86 -57 -85 -117 3 -117 3 -52 75 c-29 41 -52 83
-53 93 0 21 93 163 112 170 7 3 59 6 115 6 l102 1 28 -34z m877 -58 l59 -88
-57 -85 -57 -86 -117 3 -117 3 -52 75 c-29 41 -52 83 -53 93 0 21 93 162 112
170 7 3 60 5 118 4 l105 -2 59 -87z m840 0 l59 -88 -57 -85 -57 -86 -116 3
-117 3 -42 60 c-82 116 -81 100 -19 192 30 45 60 83 67 86 7 3 60 5 118 4
l105 -2 59 -87z m840 0 l59 -88 -56 -85 -57 -85 -118 0 -117 0 -40 62 c-86
131 -82 106 -29 184 70 106 69 105 193 102 l106 -3 59 -87z m840 0 l59 -88
-56 -85 -57 -85 -118 0 -117 0 -52 78 c-28 42 -54 82 -57 88 -7 14 85 158 111
173 10 6 61 10 123 8 l105 -2 59 -87z m840 0 l59 -88 -56 -85 -57 -85 -119 0
-118 0 -45 68 c-75 113 -74 100 -19 185 27 41 58 80 68 86 10 6 61 10 123 8
l105 -2 59 -87z m840 0 l59 -88 -56 -85 -57 -85 -119 0 -118 0 -45 68 c-75
113 -74 100 -19 185 27 41 58 80 68 86 10 6 61 10 123 8 l105 -2 59 -87z
m-11330 -210 l59 -88 -57 -85 -57 -86 -116 3 -117 3 -42 60 c-82 116 -81 100
-19 192 30 45 60 83 67 86 7 3 60 5 118 4 l105 -2 59 -87z m840 0 l59 -88 -57
-85 -57 -86 -116 3 -117 3 -42 60 c-82 117 -81 102 -25 188 27 41 58 80 68 86
10 6 61 10 123 8 l105 -2 59 -87z m840 0 l59 -88 -56 -85 -57 -85 -118 0 -117
0 -40 62 c-85 131 -82 105 -26 191 27 41 58 80 68 86 10 6 61 10 123 8 l105
-2 59 -87z m840 0 l59 -88 -56 -85 -57 -85 -119 0 -118 0 -45 68 c-75 113 -74
100 -19 185 27 41 58 80 68 86 10 6 61 10 123 8 l105 -2 59 -87z m840 0 l59
-88 -56 -85 -57 -85 -119 0 -118 0 -45 68 c-75 113 -74 100 -19 185 27 41 58
80 68 86 10 6 61 10 123 8 l105 -2 59 -87z m839 1 l59 -86 -58 -87 -57 -86
-117 0 -117 0 -45 68 c-77 115 -75 102 -18 186 27 41 58 80 67 85 10 6 64 10
123 8 l105 -2 58 -86z m840 0 l59 -86 -58 -87 -57 -86 -117 0 -117 0 -45 68
c-77 115 -75 102 -18 186 27 41 58 80 67 85 10 6 64 10 123 8 l105 -2 58 -86z
m784 69 c42 -47 104 -150 99 -164 -3 -7 -28 -48 -56 -89 l-51 -76 -117 3 -117
3 -52 75 c-29 41 -52 83 -53 93 0 21 93 163 112 170 7 3 58 6 114 6 92 1 102
-1 121 -21z m850 -12 c15 -19 43 -60 62 -91 l34 -55 -57 -86 -57 -85 -117 3
-117 3 -52 75 c-29 41 -52 83 -53 93 0 21 93 163 112 170 7 3 59 6 115 6 l102
1 28 -34z m877 -58 l59 -88 -57 -85 -57 -86 -117 3 -117 3 -52 75 c-29 41 -52
83 -53 93 0 21 93 162 112 170 7 3 60 5 118 4 l105 -2 59 -87z m840 0 l59 -88
-57 -85 -57 -86 -116 3 -117 3 -42 60 c-82 116 -81 100 -19 192 30 45 60 83
67 86 7 3 60 5 118 4 l105 -2 59 -87z m840 0 l59 -88 -56 -85 -57 -85 -118 0
-117 0 -35 53 c-19 28 -45 68 -57 88 l-23 37 49 75 c27 41 58 80 68 86 10 6
61 10 123 8 l105 -2 59 -87z m840 0 l59 -88 -56 -85 -57 -85 -118 0 -117 0
-52 78 c-28 42 -54 82 -57 88 -7 14 85 158 111 173 10 6 61 10 123 8 l105 -2
59 -87z m840 0 l59 -88 -56 -85 -57 -85 -119 0 -118 0 -45 68 c-75 113 -74
100 -19 185 27 41 58 80 68 86 10 6 61 10 123 8 l105 -2 59 -87z m-11367 -152
c15 -19 43 -60 62 -91 l34 -55 -57 -86 -57 -85 -117 3 -117 3 -52 75 c-29 41
-52 83 -53 93 0 21 93 163 112 170 7 3 59 6 115 6 l102 1 28 -34z m877 -58
l59 -88 -57 -85 -57 -86 -116 3 -117 3 -42 60 c-82 116 -81 100 -19 192 30 45
60 83 67 86 7 3 60 5 118 4 l105 -2 59 -87z m840 0 l59 -88 -57 -85 -57 -86
-116 3 -117 3 -42 60 c-81 116 -79 104 -33 176 73 113 67 110 194 107 l110 -3
59 -87z m840 0 l59 -88 -57 -85 -57 -86 -116 3 -117 3 -42 60 c-81 116 -79
104 -33 176 73 113 67 110 194 107 l110 -3 59 -87z m840 0 l59 -88 -57 -85
-57 -86 -116 3 -117 3 -37 48 c-20 27 -46 66 -58 87 l-21 37 41 64 c73 113 67
110 194 107 l110 -3 59 -87z m840 0 l59 -87 -58 -85 -59 -86 -116 0 -117 0
-45 68 c-75 112 -73 101 -27 173 73 113 67 110 194 107 l110 -3 59 -87z m839
1 l59 -86 -58 -87 -57 -86 -117 0 -117 0 -45 68 c-76 114 -74 104 -27 175 76
113 67 108 194 105 l110 -3 58 -86z m784 69 c42 -47 104 -150 99 -164 -3 -7
-28 -48 -56 -89 l-51 -75 -113 0 -113 0 -56 85 c-32 47 -57 87 -57 90 0 9 103
159 114 167 6 4 56 8 112 8 92 0 102 -2 121 -22z m840 0 c42 -47 104 -150 99
-164 -3 -7 -28 -48 -56 -89 l-51 -76 -117 3 -117 3 -52 75 c-29 41 -52 83 -53
93 0 21 93 163 112 170 7 3 58 6 114 6 92 1 102 -1 121 -21z m887 -70 l59 -88
-57 -85 -57 -86 -117 3 -117 3 -52 75 c-29 41 -52 83 -53 93 0 21 93 162 112
170 7 3 60 5 118 4 l105 -2 59 -87z m840 0 l59 -88 -57 -85 -57 -86 -116 3
-117 3 -42 60 c-81 116 -79 104 -33 176 73 113 67 110 194 107 l110 -3 59 -87z
m840 0 l59 -88 -57 -85 -57 -86 -116 3 -117 3 -42 60 c-81 116 -79 104 -33
176 73 113 67 110 194 107 l110 -3 59 -87z m840 0 l59 -88 -57 -85 -57 -86
-116 3 -117 3 -42 60 c-81 116 -79 104 -33 176 73 113 67 110 194 107 l110 -3
59 -87z m840 0 l59 -88 -56 -85 -57 -85 -113 0 c-61 0 -117 4 -123 8 -11 7
-83 112 -102 148 -10 19 -5 31 29 85 73 113 67 110 194 107 l110 -3 59 -87z
m839 1 l59 -86 -58 -87 -57 -86 -117 0 -117 0 -45 68 c-76 114 -74 104 -27
175 76 113 67 108 194 105 l110 -3 58 -86z m-11329 -211 l59 -88 -57 -85 -57
-86 -116 3 -117 3 -42 60 c-82 117 -81 102 -25 188 27 41 58 80 68 86 10 6 61
10 123 8 l105 -2 59 -87z m840 0 l59 -88 -57 -85 -57 -86 -116 3 -117 3 -42
60 c-82 117 -81 102 -25 188 27 41 58 80 68 86 10 6 61 10 123 8 l105 -2 59
-87z m840 0 l59 -88 -57 -85 -57 -86 -116 3 -117 3 -42 60 c-82 117 -81 102
-25 188 27 41 58 80 68 86 10 6 61 10 123 8 l105 -2 59 -87z m840 0 l59 -88
-56 -85 -57 -85 -118 0 -117 0 -52 78 c-28 42 -54 82 -57 88 -7 14 85 158 111
173 10 6 61 10 123 8 l105 -2 59 -87z m839 1 l59 -86 -58 -87 -57 -86 -116 0
-116 0 -52 78 c-28 42 -54 82 -57 88 -7 14 85 158 111 173 10 6 61 10 123 8
l105 -2 58 -86z m840 0 l59 -86 -58 -87 -57 -86 -117 0 -117 0 -45 68 c-76
114 -74 104 -27 175 76 113 67 108 194 105 l110 -3 58 -86z m840 0 l59 -86
-58 -87 -57 -86 -117 0 -117 0 -45 68 c-76 114 -74 104 -27 175 76 113 67 108
194 105 l110 -3 58 -86z m784 69 c42 -47 104 -150 99 -164 -3 -7 -28 -48 -56
-89 l-51 -76 -117 3 -117 3 -52 75 c-29 41 -52 83 -53 93 0 21 93 163 112 170
7 3 58 6 114 6 92 1 102 -1 121 -21z m840 0 c42 -47 104 -150 99 -164 -3 -7
-28 -48 -56 -89 l-51 -76 -117 3 -117 3 -52 75 c-29 41 -52 83 -53 93 0 21 93
163 112 170 7 3 58 6 114 6 92 1 102 -1 121 -21z m850 -12 c15 -19 43 -60 62
-91 l34 -55 -57 -86 -57 -85 -117 3 -117 3 -52 75 c-29 41 -52 83 -53 93 0 22
86 153 109 167 9 5 62 10 118 10 l102 0 28 -34z m877 -58 l59 -88 -57 -85 -57
-86 -116 3 -117 3 -42 60 c-82 117 -81 102 -25 188 27 41 58 80 68 86 10 6 61
10 123 8 l105 -2 59 -87z m840 0 l59 -88 -57 -85 -57 -86 -116 3 -117 3 -42
60 c-82 117 -81 102 -25 188 27 41 58 80 68 86 10 6 61 10 123 8 l105 -2 59
-87z m840 0 l59 -88 -57 -85 -57 -86 -116 3 -117 3 -42 60 c-82 117 -81 102
-25 188 27 41 58 80 68 86 10 6 61 10 123 8 l105 -2 59 -87z m839 1 l59 -86
-58 -87 -57 -86 -116 0 -116 0 -52 78 c-28 42 -54 82 -57 88 -7 14 85 158 111
173 10 6 61 10 123 8 l105 -2 58 -86z m-11366 -153 c15 -19 43 -60 62 -91 l34
-55 -57 -86 -57 -85 -117 3 -117 3 -52 75 c-29 41 -52 84 -53 94 0 24 75 142
104 161 15 11 49 15 122 15 l103 0 28 -34z m877 -58 l59 -88 -57 -85 -57 -86
-116 3 -117 3 -42 60 c-82 117 -81 102 -25 188 27 41 58 80 68 86 10 6 61 10
123 8 l105 -2 59 -87z m840 0 l59 -88 -57 -85 -57 -86 -116 3 -117 3 -42 60
c-82 117 -81 102 -25 188 27 41 58 80 68 86 10 6 61 10 123 8 l105 -2 59 -87z
m840 0 l59 -88 -57 -85 -57 -86 -116 3 -117 3 -42 60 c-81 116 -79 104 -33
176 73 113 67 110 194 107 l110 -3 59 -87z m839 1 l59 -86 -58 -87 -57 -87
-116 3 -115 3 -37 48 c-20 27 -46 66 -58 87 l-21 37 41 64 c73 113 67 110 194
107 l110 -3 58 -86z m840 0 l59 -86 -58 -87 -57 -86 -117 0 -117 0 -45 68
c-76 114 -74 104 -27 175 76 113 67 108 194 105 l110 -3 58 -86z m840 0 l59
-86 -58 -87 -57 -86 -117 0 -117 0 -45 68 c-76 114 -74 104 -27 175 76 113 67
108 194 105 l110 -3 58 -86z m773 83 c23 -15 115 -164 110 -178 -3 -8 -28 -48
-56 -89 l-51 -75 -113 0 -113 0 -45 68 c-77 115 -76 102 -17 189 29 43 57 81
63 85 6 4 56 8 111 8 55 0 105 -4 111 -8z m851 -14 c42 -47 104 -150 99 -164
-3 -7 -28 -48 -56 -89 l-51 -76 -117 3 -117 3 -52 75 c-29 41 -52 83 -53 93 0
21 93 163 112 170 7 3 58 6 114 6 92 1 102 -1 121 -21z m850 -12 c15 -19 43
-60 62 -91 l34 -55 -57 -86 -57 -85 -117 3 -117 3 -52 75 c-29 41 -52 83 -53
93 0 21 93 163 112 170 7 3 59 6 115 6 l102 1 28 -34z m840 0 c15 -19 43 -60
62 -91 l34 -55 -57 -86 -57 -85 -116 3 -117 3 -42 60 c-82 117 -81 102 -25
188 27 41 58 80 68 86 10 6 64 11 120 11 l102 0 28 -34z m877 -58 l59 -88 -57
-85 -57 -86 -116 3 -117 3 -42 60 c-82 117 -81 102 -25 188 27 41 58 80 68 86
10 6 61 10 123 8 l105 -2 59 -87z m840 0 l59 -88 -57 -85 -57 -86 -116 3 -117
3 -42 60 c-81 116 -79 104 -33 176 73 113 67 110 194 107 l110 -3 59 -87z
m840 0 l60 -88 -58 -85 -58 -85 -114 0 -113 0 -41 55 c-23 30 -50 70 -60 89
l-20 33 41 64 c73 114 67 110 194 107 l110 -3 59 -87z m839 1 l59 -86 -58 -87
-57 -87 -116 3 -115 3 -37 48 c-20 27 -46 66 -58 87 l-21 37 41 64 c73 113 67
110 194 107 l110 -3 58 -86z m-11376 -141 c42 -47 104 -150 99 -164 -3 -7 -28
-48 -56 -89 l-51 -76 -117 3 -117 3 -52 75 c-29 41 -52 84 -53 95 0 20 55 110
93 153 19 20 29 22 127 22 98 0 108 -2 127 -22z m887 -70 l59 -88 -57 -85 -57
-86 -116 3 -117 3 -42 60 c-81 116 -79 104 -33 176 73 113 67 110 194 107
l110 -3 59 -87z m840 0 l59 -88 -57 -85 -57 -86 -116 3 -117 3 -42 60 c-81
116 -79 104 -33 176 73 113 67 110 194 107 l110 -3 59 -87z m840 0 l59 -87
-59 -86 -58 -86 -115 3 -115 3 -42 60 c-81 116 -79 104 -33 176 73 113 67 110
194 107 l110 -3 59 -87z m839 1 l59 -86 -58 -87 -57 -87 -116 3 -115 3 -42 60
c-81 116 -79 104 -33 176 73 113 67 110 194 107 l110 -3 58 -86z m840 0 l59
-86 -58 -87 -57 -86 -117 0 -117 0 -45 67 c-77 116 -76 103 -17 190 29 43 57
81 63 86 6 4 61 6 121 5 l110 -3 58 -86z m840 0 l59 -86 -58 -87 -57 -86 -117
0 -117 0 -45 67 c-77 116 -76 103 -17 190 29 43 57 81 63 86 6 4 61 6 121 5
l110 -3 58 -86z m773 83 c23 -15 115 -164 110 -178 -3 -8 -28 -48 -56 -89
l-51 -76 -117 3 -117 3 -52 75 c-29 41 -52 83 -53 93 0 21 93 163 112 170 20
8 212 8 224 -1z m840 0 c23 -15 115 -164 110 -178 -3 -8 -28 -48 -56 -89 l-51
-76 -117 3 -117 3 -52 75 c-29 41 -52 83 -53 93 0 17 62 118 98 160 13 14 32
17 121 17 58 0 111 -4 117 -8z m861 -26 c15 -19 43 -60 62 -91 l34 -55 -57
-86 -57 -85 -116 3 -117 3 -42 60 c-81 116 -79 104 -33 176 72 112 67 109 190
109 l108 0 28 -34z m877 -58 l59 -88 -57 -85 -57 -86 -116 3 -117 3 -42 60
c-81 116 -79 104 -33 176 73 113 67 110 194 107 l110 -3 59 -87z m840 0 l59
-88 -57 -85 -57 -86 -116 3 -117 3 -42 60 c-81 116 -79 104 -33 176 73 113 67
110 194 107 l110 -3 59 -87z m840 0 l59 -88 -57 -85 -57 -86 -116 3 -117 3
-42 60 c-81 116 -79 104 -33 176 73 113 67 110 194 107 l110 -3 59 -87z m839
1 l59 -86 -58 -87 -57 -86 -113 0 -113 0 -28 34 c-15 19 -43 59 -61 90 l-34
55 43 63 c76 114 67 109 194 106 l110 -3 58 -86z"/>
</g>
</svg>
